STARTFONT 2.1
FONT -FontForge-Monoton-Book-R-Normal--24-240-72-72-P-162-ISO10646-1
SIZE 24 72 72
FONTBOUNDINGBOX 45 37 -4 -9
COMMENT "Generated by fontforge, http://fontforge.sourceforge.net"
COMMENT "Copyright (c) 2011 by vernon adams. All rights reserved."
STARTPROPERTIES 40
FOUNDRY "FontForge"
FAMILY_NAME "Monoton"
WEIGHT_NAME "Book"
SLANT "R"
SETWIDTH_NAME "Normal"
ADD_STYLE_NAME ""
PIXEL_SIZE 24
POINT_SIZE 240
RESOLUTION_X 72
RESOLUTION_Y 72
SPACING "P"
AVERAGE_WIDTH 162
CHARSET_REGISTRY "ISO10646"
CHARSET_ENCODING "1"
FONTNAME_REGISTRY ""
CHARSET_COLLECTIONS "ISO8859-2 ISO8859-9 ISO8859-4 ISO10646-1"
FONT_NAME "Monoton-Regular"
FACE_NAME "Monoton"
COPYRIGHT "Copyright (c) 2011 by vernon adams. All rights reserved."
FONT_VERSION "1.000"
FONT_ASCENT 19
FONT_DESCENT 5
UNDERLINE_POSITION -1
UNDERLINE_THICKNESS 1
X_HEIGHT 16
CAP_HEIGHT 18
DEFAULT_CHAR 1
RAW_ASCENT 799
RAW_DESCENT 200
NORM_SPACE 3
RELATIVE_WEIGHT 40
RELATIVE_SETWIDTH 50
SUPERSCRIPT_X 0
SUPERSCRIPT_Y 8
SUPERSCRIPT_SIZE 14
SUBSCRIPT_X 0
SUBSCRIPT_Y 1
SUBSCRIPT_SIZE 14
AVG_LOWERCASE_WIDTH 174
AVG_UPPERCASE_WIDTH 189
ENDPROPERTIES
CHARS 372
STARTCHAR glyph1.dup1
ENCODING 0
SWIDTH 108 0
DWIDTH 3 0
BBX 1 1 0 0
BITMAP
00
ENDCHAR
STARTCHAR uni0002
ENCODING 2
SWIDTH 108 0
DWIDTH 3 0
BBX 1 1 0 0
BITMAP
00
ENDCHAR
STARTCHAR uni0009
ENCODING 9
SWIDTH 108 0
DWIDTH 3 0
BBX 1 1 0 0
BITMAP
00
ENDCHAR
STARTCHAR uni000A
ENCODING 10
SWIDTH 108 0
DWIDTH 3 0
BBX 1 1 0 0
BITMAP
00
ENDCHAR
STARTCHAR uni000D
ENCODING 13
SWIDTH 108 0
DWIDTH 3 0
BBX 1 1 0 0
BITMAP
00
ENDCHAR
STARTCHAR space
ENCODING 32
SWIDTH 108 0
DWIDTH 3 0
BBX 1 1 0 0
BITMAP
00
ENDCHAR
STARTCHAR exclam
ENCODING 33
SWIDTH 336 0
DWIDTH 8 0
BBX 6 20 1 -1
BITMAP
B4
B4
B4
B4
B4
B4
B4
B4
B4
B4
B4
B4
B4
B4
00
00
FC
FC
00
FC
ENDCHAR
STARTCHAR quotedbl
ENCODING 34
SWIDTH 538 0
DWIDTH 13 0
BBX 11 7 1 12
BITMAP
B1A0
B1A0
B1A0
B1A0
B1A0
B1A0
B1A0
ENDCHAR
STARTCHAR numbersign
ENCODING 35
SWIDTH 1014 0
DWIDTH 24 0
BBX 24 21 0 -1
BITMAP
00A878
00B0A8
00D0A8
0F5FB7
0150D0
1F6F5E
01A150
1EBF6E
02A1A0
02C2A0
0342A0
0542C0
054340
0D8540
76BD78
7AFDB8
0A8680
FB7AF0
0D0A80
150B00
150D00
ENDCHAR
STARTCHAR dollar
ENCODING 36
SWIDTH 686 0
DWIDTH 16 0
BBX 15 27 1 -4
BITMAP
0480
0480
0000
0FF0
318C
4C72
B7EC
A810
B7E0
D400
D7C0
A830
A7C8
5834
27D4
1FAA
006A
006A
1F2A
3CD4
6334
9FC8
7030
0FC0
0480
0480
0480
ENDCHAR
STARTCHAR percent
ENCODING 37
SWIDTH 1504 0
DWIDTH 36 0
BBX 35 22 1 -2
BITMAP
0FC0000000
3320540000
4CD0580000
5728680000
A8A8A80000
D754A80000
D4D4B01000
D4D4D0EE00
B755513900
A8A952C680
5329657D40
4FD1A5D540
3022AAAAC0
0FC2AACAA0
0002CAAAA0
00034692C0
0005456D40
0005429280
0005837D80
0006818300
000A807C00
000B000000
ENDCHAR
STARTCHAR ampersand
ENCODING 38
SWIDTH 1029 0
DWIDTH 25 0
BBX 23 19 1 0
BITMAP
1FF2D0
27F2D0
5802D0
B7F2D0
A802D0
D7F2D0
D402D0
B7FEDE
A802D0
77FEDE
A802D0
D7FEDE
D402D0
B7FAAC
AC02B0
53F94C
6FF8BC
3000C0
0FF83C
ENDCHAR
STARTCHAR quotesingle
ENCODING 39
SWIDTH 257 0
DWIDTH 6 0
BBX 4 7 1 12
BITMAP
B0
B0
B0
B0
B0
B0
B0
ENDCHAR
STARTCHAR parenleft
ENCODING 40
SWIDTH 410 0
DWIDTH 10 0
BBX 8 22 1 -2
BITMAP
0F
33
6C
57
A8
B3
B4
D4
D4
D4
D4
D4
D4
D4
D4
B4
AB
77
58
27
18
03
ENDCHAR
STARTCHAR parenright
ENCODING 41
SWIDTH 408 0
DWIDTH 10 0
BBX 8 22 1 -2
BITMAP
F0
88
34
CA
35
D5
2D
2D
2D
2D
2D
2D
2D
2D
2D
75
D5
EA
1A
E4
38
C0
ENDCHAR
STARTCHAR asterisk
ENCODING 42
SWIDTH 664 0
DWIDTH 16 0
BBX 14 14 1 3
BITMAP
0680
0680
6698
5EE8
6698
9A64
6698
3370
4EC8
B6B4
4EC8
36B0
4688
0680
ENDCHAR
STARTCHAR plus
ENCODING 43
SWIDTH 601 0
DWIDTH 14 0
BBX 13 11 1 4
BITMAP
1580
1580
1580
F5F8
1580
F5F8
F5F8
1580
1580
1580
1580
ENDCHAR
STARTCHAR comma
ENCODING 44
SWIDTH 252 0
DWIDTH 6 0
BBX 4 7 1 -3
BITMAP
B0
B0
B0
30
50
90
E0
ENDCHAR
STARTCHAR hyphen
ENCODING 45
SWIDTH 473 0
DWIDTH 11 0
BBX 9 4 1 8
BITMAP
FF80
0000
FF80
FF80
ENDCHAR
STARTCHAR period
ENCODING 46
SWIDTH 255 0
DWIDTH 6 0
BBX 4 4 1 0
BITMAP
F0
F0
00
F0
ENDCHAR
STARTCHAR slash
ENCODING 47
SWIDTH 447 0
DWIDTH 11 0
BBX 10 21 0 -2
BITMAP
03C0
0540
0540
0580
0680
0A80
0A80
0B00
0D00
1500
1500
1600
1A00
2A00
2A00
2C00
3400
5400
5400
5800
E800
ENDCHAR
STARTCHAR zero
ENCODING 48
SWIDTH 843 0
DWIDTH 20 0
BBX 19 21 1 -1
BITMAP
07F800
086600
171B00
29E580
561A80
6DE540
AA1540
B40AC0
D40AC0
D40AA0
D406A0
D40AA0
B40AC0
AC0B40
AA1540
55ED80
5BB280
2C4D00
13F200
0C0C00
03F000
ENDCHAR
STARTCHAR one
ENCODING 49
SWIDTH 426 0
DWIDTH 10 0
BBX 8 19 1 0
BITMAP
FF
FF
00
FF
2B
2B
2B
2B
2B
2B
2B
2B
2B
2B
2B
2B
2B
2B
2B
ENDCHAR
STARTCHAR two
ENCODING 50
SWIDTH 583 0
DWIDTH 14 0
BBX 12 20 1 0
BITMAP
FF80
3C40
C3A0
7E50
8150
7EB0
02B0
02D0
0550
06A0
0AA0
1540
2A80
3500
5500
AA00
FFE0
FFE0
0000
FFE0
ENDCHAR
STARTCHAR three
ENCODING 51
SWIDTH 612 0
DWIDTH 15 0
BBX 13 21 1 -1
BITMAP
FF80
1E60
E1B0
3E50
81A8
7EA8
0168
1C68
01E8
1F30
00D0
1F50
1CA8
0368
8168
7CA8
F330
0CD0
FF20
80C0
7F00
ENDCHAR
STARTCHAR four
ENCODING 52
SWIDTH 622 0
DWIDTH 15 0
BBX 13 19 1 0
BITMAP
05F0
0AA0
0B40
1540
1540
2A80
2A80
5500
5550
AA50
AA50
FFF8
0000
FFF8
0000
FFF8
0050
0050
0050
ENDCHAR
STARTCHAR five
ENCODING 53
SWIDTH 691 0
DWIDTH 17 0
BBX 16 20 0 -1
BITMAP
7FFC
7FFC
0000
7FFC
5400
5400
57E0
5418
57F4
578A
5435
57D5
002D
002D
0F95
1E6E
319A
CFE4
3818
07E0
ENDCHAR
STARTCHAR six
ENCODING 54
SWIDTH 781 0
DWIDTH 19 0
BBX 17 21 1 -1
BITMAP
07F800
19C600
2E3900
5BF600
A40800
ABF000
B40000
D7F000
D40C00
D7FA00
D4E500
D71A80
D7EA80
D41680
B61680
A9CA80
573280
48CD00
37F200
0C0C00
03F000
ENDCHAR
STARTCHAR seven
ENCODING 55
SWIDTH 631 0
DWIDTH 15 0
BBX 14 19 1 0
BITMAP
FF5C
FF68
0168
FDA8
02B0
02B0
02D0
0350
0550
0560
05A0
06A0
0AA0
0AC0
0B40
0D40
1540
1580
1E80
ENDCHAR
STARTCHAR eight
ENCODING 56
SWIDTH 808 0
DWIDTH 19 0
BBX 18 21 1 -1
BITMAP
0FFC00
31E200
4C1D00
57F280
A80A80
B7F540
D40D40
B7E540
A80F80
57FB80
4C0480
B1FA80
AFE540
D41540
D40D40
ABE540
AE1A80
51E680
2FF900
180600
07F800
ENDCHAR
STARTCHAR nine
ENCODING 57
SWIDTH 782 0
DWIDTH 19 0
BBX 17 21 1 -1
BITMAP
0FF000
330C00
4C7200
D7ED00
A81500
D7EA80
D41A80
D47680
A99680
A7D680
583680
27D680
1C5680
039680
042A80
03CA80
0E7500
318A00
6FF600
181800
07E000
ENDCHAR
STARTCHAR colon
ENCODING 58
SWIDTH 262 0
DWIDTH 6 0
BBX 4 11 1 3
BITMAP
F0
F0
00
F0
00
00
F0
00
F0
00
F0
ENDCHAR
STARTCHAR semicolon
ENCODING 59
SWIDTH 261 0
DWIDTH 6 0
BBX 4 14 1 0
BITMAP
F0
F0
00
F0
00
00
B0
B0
B0
B0
30
D0
10
E0
ENDCHAR
STARTCHAR less
ENCODING 60
SWIDTH 670 0
DWIDTH 16 0
BBX 14 18 1 1
BITMAP
0004
001C
0064
0398
0CE4
7338
9CC4
6738
99C0
E600
BCE0
DB98
CE64
399C
0674
01CC
0030
000C
ENDCHAR
STARTCHAR equal
ENCODING 61
SWIDTH 473 0
DWIDTH 11 0
BBX 9 11 1 3
BITMAP
FF80
FF80
0000
FF80
0000
0000
FF80
0000
FF80
0000
FF80
ENDCHAR
STARTCHAR greater
ENCODING 62
SWIDTH 670 0
DWIDTH 16 0
BBX 14 18 1 1
BITMAP
8000
E000
9800
6700
9CC0
7338
CCE4
3398
0EE4
0338
1CCC
6730
99CC
E670
B980
CE00
3000
C000
ENDCHAR
STARTCHAR question
ENCODING 63
SWIDTH 693 0
DWIDTH 17 0
BBX 16 20 0 0
BITMAP
1FF0
2308
DC74
27CA
1835
0FD5
002D
002D
1BD5
1BEA
1A1A
1BE4
1A38
1BC0
1A00
0000
3E00
3E00
0000
3E00
ENDCHAR
STARTCHAR at
ENCODING 64
SWIDTH 1076 0
DWIDTH 26 0
BBX 24 23 1 -2
BITMAP
00FF00
0300C0
0CFF30
133CC8
25C3A4
4A0054
547E2A
A89916
A96695
B29D4D
B2A54D
D2C34D
B2C34D
B2BB4D
A97B75
A88285
547B7A
6B0184
24FE70
1B0000
0CFE00
038000
007E00
ENDCHAR
STARTCHAR A
ENCODING 65
SWIDTH 936 0
DWIDTH 22 0
BBX 22 19 0 0
BITMAP
00AA00
015A00
015500
02B500
02AB00
036A80
055680
057540
0AAD40
0AAAC0
0B4AA0
1545A0
15BD50
1AC350
2AFEB0
2D02A8
55FD68
560154
EA01D4
ENDCHAR
STARTCHAR B
ENCODING 66
SWIDTH 862 0
DWIDTH 21 0
BBX 19 19 1 0
BITMAP
FFFE00
BFFD80
A002C0
BFFD40
B002A0
B7FEA0
B405A0
B7FEA0
B402C0
B7FD40
B402A0
B7FDA0
B405A0
B7FAA0
B406A0
B7F940
B7FE80
B40100
B7FE00
ENDCHAR
STARTCHAR C
ENCODING 67
SWIDTH 852 0
DWIDTH 20 0
BBX 19 21 1 -1
BITMAP
03FC00
0C3300
138C80
2CFB40
5B04A0
54FBC0
AB0500
AC0200
D40000
D40000
D40000
D40000
B40000
AA0200
A90D00
5672C0
299DA0
366240
09FD80
060600
00F800
ENDCHAR
STARTCHAR D
ENCODING 68
SWIDTH 886 0
DWIDTH 21 0
BBX 20 19 1 0
BITMAP
FFFE00
BFFB00
A00680
BFFB40
B00540
B7FAA0
B405A0
B40560
B40550
B40550
B40560
B40560
B40AA0
B7F2A0
B00D40
BFF2C0
BFFD80
800200
FFFC00
ENDCHAR
STARTCHAR E
ENCODING 69
SWIDTH 706 0
DWIDTH 17 0
BBX 15 19 1 0
BITMAP
B7FE
B7FE
B400
B7FE
B400
B400
B400
B7E0
B400
B7E0
B7E0
B400
B400
B400
B400
B7FE
B7FE
B400
B7FE
ENDCHAR
STARTCHAR F
ENCODING 70
SWIDTH 683 0
DWIDTH 16 0
BBX 15 19 1 0
BITMAP
B7FE
B7FE
B400
B7FE
B400
B400
B400
B400
B7FC
B400
B7FC
B7FC
B400
B400
B400
B400
B400
B400
B400
ENDCHAR
STARTCHAR G
ENCODING 71
SWIDTH 908 0
DWIDTH 22 0
BBX 20 21 1 -1
BITMAP
03FC00
0C3300
138C80
2CFB40
5B04A0
54FBC0
AB0500
AC0200
D40000
D40000
D402D0
D402D0
B402D0
AA02D0
A906D0
547AD0
2B9ED0
3662D0
19FED0
0606D0
01F800
ENDCHAR
STARTCHAR H
ENCODING 72
SWIDTH 901 0
DWIDTH 22 0
BBX 20 19 1 0
BITMAP
B40350
B40350
B40350
B40350
B40350
B40350
B40350
B7FD50
B40350
B7FD50
B7FF50
B40350
B40350
B40350
B40350
B40350
B40350
B40350
B40350
ENDCHAR
STARTCHAR I
ENCODING 73
SWIDTH 338 0
DWIDTH 8 0
BBX 6 19 1 0
BITMAP
B4
B4
B4
B4
B4
B4
B4
B4
B4
B4
B4
B4
B4
B4
B4
B4
B4
B4
B4
ENDCHAR
STARTCHAR J
ENCODING 74
SWIDTH 434 0
DWIDTH 10 0
BBX 8 20 1 -1
BITMAP
2B
2B
2B
2B
2B
2B
2B
2B
2B
2B
2B
2B
2B
2B
D5
35
CA
F4
18
E0
ENDCHAR
STARTCHAR K
ENCODING 75
SWIDTH 815 0
DWIDTH 20 0
BBX 18 19 1 0
BITMAP
B41540
B42A80
B42A80
B45500
B45500
B4AA00
B4AA00
B55400
B55400
B7A800
B55400
B4D400
B4AA00
B45A00
B45500
B42D00
B42A80
B41680
B41540
ENDCHAR
STARTCHAR L
ENCODING 76
SWIDTH 604 0
DWIDTH 15 0
BBX 13 19 1 0
BITMAP
B400
B400
B400
B400
B400
B400
B400
B400
B400
B400
B400
B400
B400
B400
B400
B7F8
B7F8
B400
B7F8
ENDCHAR
STARTCHAR M
ENCODING 77
SWIDTH 920 0
DWIDTH 22 0
BBX 20 19 1 0
BITMAP
E80150
D402B0
AC02D0
AA0550
D605B0
B50AD0
AA9550
BA95D0
B56AD0
B56AD0
B6B6D0
B6B6D0
B55AD0
B5FAD0
B402D0
B402D0
B402D0
B402D0
B402D0
ENDCHAR
STARTCHAR N
ENCODING 78
SWIDTH 877 0
DWIDTH 21 0
BBX 19 19 1 0
BITMAP
FF05A0
D505A0
AA85A0
BA85A0
B545A0
AAA5A0
BAA5A0
B555A0
B2BDA0
B6ADA0
B555A0
B555A0
B4AAA0
B455A0
B45560
B42AA0
B42AA0
B41560
B40AA0
ENDCHAR
STARTCHAR O
ENCODING 79
SWIDTH 933 0
DWIDTH 22 0
BBX 21 21 1 -1
BITMAP
03FC00
0C3300
138C80
2CFB40
5B04A0
54FB50
AB0550
AC02B0
D402A8
D401A8
D401A8
D401A8
B402A8
AA02D0
A90D50
5672A0
299DA0
366240
09FD80
060600
00F800
ENDCHAR
STARTCHAR P
ENCODING 80
SWIDTH 850 0
DWIDTH 20 0
BBX 19 19 1 0
BITMAP
FFFE00
BFF900
A00680
BFF940
B00540
B7FAA0
B406A0
B406A0
B5FAC0
B40540
B5F340
B5FC80
B40300
B5FC00
B40000
B40000
B40000
B40000
B40000
ENDCHAR
STARTCHAR Q
ENCODING 81
SWIDTH 937 0
DWIDTH 23 0
BBX 21 23 1 -3
BITMAP
03FC00
0C3300
138C80
2CFB40
5B04A0
54FB50
AB0550
AC02B0
D402A8
D401A8
D401A8
D40DA8
B456A8
AA2AD0
A90D50
5672A0
299DA0
366240
09FDC0
0606A0
00FAA0
000140
000100
ENDCHAR
STARTCHAR R
ENCODING 82
SWIDTH 843 0
DWIDTH 20 0
BBX 19 19 1 0
BITMAP
FFFE00
BFF900
A00680
BFF940
B00540
B7FAA0
B406A0
B40AA0
B7F2C0
B7FD40
B40280
B7F980
B40600
B7FD00
B43500
B42B00
B42A80
B41A80
B41580
ENDCHAR
STARTCHAR S
ENCODING 83
SWIDTH 682 0
DWIDTH 16 0
BBX 16 21 0 -1
BITMAP
07F8
18C6
2E39
5BE6
5418
6BF0
6A00
6BE0
5418
53E4
2C1A
11EA
0FD6
0055
0075
0F95
1E6A
319A
CFE4
3818
07E0
ENDCHAR
STARTCHAR T
ENCODING 84
SWIDTH 591 0
DWIDTH 14 0
BBX 12 19 1 0
BITMAP
FFF0
FFF0
0000
FFF0
1680
1680
1680
1680
1680
1680
1680
1680
1680
1680
1680
1680
1680
1680
1680
ENDCHAR
STARTCHAR U
ENCODING 85
SWIDTH 905 0
DWIDTH 22 0
BBX 20 20 1 -1
BITMAP
B40350
B40350
B40350
B40350
B40350
B40350
B40350
B40350
B40350
B40350
B40350
B40350
AA0560
AB0AA0
54E6A0
6B9940
246680
1BF900
060600
01F800
ENDCHAR
STARTCHAR V
ENCODING 86
SWIDTH 940 0
DWIDTH 23 0
BBX 22 19 0 0
BITMAP
FA01F4
550158
3501A8
2B02A8
2A82D0
168550
154560
0D46A0
0ACAA0
0AAB40
05B540
055580
055A80
02AA80
02AD00
015500
015500
016A00
00AA00
ENDCHAR
STARTCHAR W
ENCODING 87
SWIDTH 1161 0
DWIDTH 28 0
BBX 27 19 0 0
BITMAP
EA3A85E0
5A2B86A0
562D4AA0
55354AC0
35554B40
2D56AD40
2B5AB540
1B6BB580
16AB5680
15AD5A80
15B76A80
0CD6AB00
0B56AD00
0B5AB500
0BA95600
06A95A00
06B16A00
06D0AA00
0750AC00
ENDCHAR
STARTCHAR X
ENCODING 88
SWIDTH 876 0
DWIDTH 21 0
BBX 21 19 0 0
BITMAP
FF0550
2A8AA0
2A9540
155540
156A80
0AD500
055500
05AA00
02AA00
015600
02AA00
02AD00
055A80
0AAA80
0AB540
154AA0
1DCAA0
2A8550
5507F8
ENDCHAR
STARTCHAR Y
ENCODING 89
SWIDTH 789 0
DWIDTH 19 0
BBX 19 19 0 0
BITMAP
EE0BE0
560D40
351580
2B1A80
1AAB00
15B500
0D5600
0B6A00
06AC00
05B400
035800
036800
02B000
02B000
02B000
02B000
02B000
02B000
02B000
ENDCHAR
STARTCHAR Z
ENCODING 90
SWIDTH 854 0
DWIDTH 21 0
BBX 19 19 1 0
BITMAP
FFFFE0
FFFE80
000360
FFF480
009B60
FF2480
00DB60
012480
06DB00
092400
36D800
492000
B6C000
497FE0
B60000
49FFE0
B7FFE0
480000
FFFFE0
ENDCHAR
STARTCHAR bracketleft
ENCODING 91
SWIDTH 320 0
DWIDTH 8 0
BBX 6 22 1 -2
BITMAP
FC
BC
A0
BC
B0
B0
B0
B0
B0
B0
B0
B0
B0
B0
B0
B0
B0
BC
A0
BC
80
FC
ENDCHAR
STARTCHAR backslash
ENCODING 92
SWIDTH 448 0
DWIDTH 11 0
BBX 10 21 0 -2
BITMAP
E800
5800
5400
5400
3400
2C00
2A00
2A00
1A00
1600
1500
1500
0D00
0B00
0A80
0A80
0680
0580
0540
0540
03C0
ENDCHAR
STARTCHAR bracketright
ENCODING 93
SWIDTH 319 0
DWIDTH 8 0
BBX 6 22 1 -2
BITMAP
FC
F4
14
D4
54
54
54
54
54
54
54
54
54
54
54
54
54
D4
14
F4
04
FC
ENDCHAR
STARTCHAR asciicircum
ENCODING 94
SWIDTH 475 0
DWIDTH 11 0
BBX 10 9 1 8
BITMAP
1400
1A00
2A00
3600
3500
5500
5280
A280
A1C0
ENDCHAR
STARTCHAR underscore
ENCODING 95
SWIDTH 511 0
DWIDTH 12 0
BBX 10 4 1 -4
BITMAP
FFC0
0000
FFC0
FFC0
ENDCHAR
STARTCHAR grave
ENCODING 96
SWIDTH 472 0
DWIDTH 11 0
BBX 10 6 1 17
BITMAP
4000
B000
CC00
3B00
06C0
0100
ENDCHAR
STARTCHAR a
ENCODING 97
SWIDTH 832 0
DWIDTH 20 0
BBX 18 17 1 0
BITMAP
07F800
19E600
261B00
5BE500
541A80
ABE580
B41540
D40B40
D40B40
D40B40
D40B40
AB1B40
6CEB40
53EB40
2C1B40
1BEB40
07EB40
ENDCHAR
STARTCHAR b
ENCODING 98
SWIDTH 720 0
DWIDTH 17 0
BBX 15 17 1 0
BITMAP
FFF0
800C
BFF6
BFEA
B016
B016
B7F6
B00A
B7F4
B00A
B7F6
B016
B016
B7CA
B7F2
B00C
B7F0
ENDCHAR
STARTCHAR c
ENCODING 99
SWIDTH 736 0
DWIDTH 18 0
BBX 16 19 1 -1
BITMAP
01E0
0E1C
13F6
2C09
53F6
54CC
AB30
B400
D400
D400
D400
B400
AA10
ADEC
5332
2CCD
13F2
0C0C
03F0
ENDCHAR
STARTCHAR d
ENCODING 100
SWIDTH 833 0
DWIDTH 20 0
BBX 18 17 1 0
BITMAP
FFF000
800C00
BFFB00
BFE500
B01A80
B7E540
B41540
B40B40
B40AC0
B40B40
B41540
B7E540
B01A80
BFC580
BFFB00
800600
FFF800
ENDCHAR
STARTCHAR e
ENCODING 101
SWIDTH 666 0
DWIDTH 16 0
BBX 14 17 1 0
BITMAP
B7FC
B400
B7FC
B7FC
B400
B400
B7FC
B400
B7FC
B400
B7FC
B400
B400
B7FC
B7FC
B400
B7FC
ENDCHAR
STARTCHAR f
ENCODING 102
SWIDTH 625 0
DWIDTH 15 0
BBX 13 17 1 0
BITMAP
B7F8
B400
B7F8
B7F8
B400
B400
B400
B7F8
B400
B7F8
B7F8
B400
B400
B400
B400
B400
B400
ENDCHAR
STARTCHAR g
ENCODING 103
SWIDTH 827 0
DWIDTH 20 0
BBX 18 19 1 -1
BITMAP
01E000
0E1C00
13F600
2C0900
53F600
54CC00
AB3000
B40000
D40000
D40B40
D40B40
B40B40
AA1B40
ADEB40
533B40
2CCB40
13FB40
0C0B40
03F000
ENDCHAR
STARTCHAR h
ENCODING 104
SWIDTH 830 0
DWIDTH 20 0
BBX 18 17 1 0
BITMAP
B40B40
B40B40
B40B40
B40B40
B40B40
B40B40
B7FB40
B40B40
B7FB40
B7FB40
B40B40
B40B40
B40B40
B40B40
B40B40
B40B40
B40B40
ENDCHAR
STARTCHAR i
ENCODING 105
SWIDTH 337 0
DWIDTH 8 0
BBX 6 17 1 0
BITMAP
B4
B4
B4
B4
B4
B4
B4
B4
B4
B4
B4
B4
B4
B4
B4
B4
B4
ENDCHAR
STARTCHAR j
ENCODING 106
SWIDTH 393 0
DWIDTH 9 0
BBX 7 20 1 -3
BITMAP
56
56
56
56
56
56
56
56
56
56
56
56
56
D6
2A
D4
24
D8
70
80
ENDCHAR
STARTCHAR k
ENCODING 107
SWIDTH 801 0
DWIDTH 19 0
BBX 18 17 1 0
BITMAP
B41540
B42A80
B42A80
B45500
B45600
B4AA00
B4B400
B55400
B5A800
B55400
B4D400
B4AA00
B45A00
B45500
B42B00
B42A80
B415C0
ENDCHAR
STARTCHAR l
ENCODING 108
SWIDTH 583 0
DWIDTH 14 0
BBX 12 17 1 0
BITMAP
B400
B400
B400
B400
B400
B400
B400
B400
B400
B400
B400
B400
B400
B7F0
B7F0
B400
B7F0
ENDCHAR
STARTCHAR m
ENCODING 109
SWIDTH 1167 0
DWIDTH 28 0
BBX 26 18 1 0
BITMAP
03C0F000
1C3F0E00
27EDF900
581E0680
77EBFA80
AB95F540
B46D0B40
B42D0B40
B42D0B40
B42D0B40
B42D0B40
B42D0B40
B42D0B40
B42D0B40
B42D0B40
B42D0B40
B42D0B40
B42D0B40
ENDCHAR
STARTCHAR n
ENCODING 110
SWIDTH 787 0
DWIDTH 19 0
BBX 17 17 1 0
BITMAP
AA0A80
D50A80
D50A80
AA8A80
D54A80
B54A80
AAAA80
BAAA80
B55A80
B3F680
B2AA80
B15680
B15680
B0AA80
B0AA80
B05580
B02B80
ENDCHAR
STARTCHAR o
ENCODING 111
SWIDTH 833 0
DWIDTH 20 0
BBX 18 19 1 -1
BITMAP
01E000
0E1C00
13F200
2C0900
53F680
54CA80
AB3540
B40D40
D40B40
D40AC0
D40AC0
B40B40
AA1540
ADEA80
533280
2CCD00
13F200
0C0C00
03F000
ENDCHAR
STARTCHAR p
ENCODING 112
SWIDTH 781 0
DWIDTH 19 0
BBX 17 17 1 0
BITMAP
FFF000
800C00
BFFA00
BFE500
B01A80
B7EA80
B41680
B5F680
B40A80
B5F500
B40900
B5F600
B5F800
B40000
B40000
B40000
B40000
ENDCHAR
STARTCHAR q
ENCODING 113
SWIDTH 788 0
DWIDTH 19 0
BBX 17 20 1 -3
BITMAP
07FF80
180080
27FE80
59FA80
A60A80
ABFA80
D41A80
D41A80
D41A80
B61A80
A9DA80
D7DA80
481A80
33DA80
1C1A80
03DA80
001A80
001A80
001A80
001A80
ENDCHAR
STARTCHAR r
ENCODING 114
SWIDTH 831 0
DWIDTH 20 0
BBX 18 17 1 0
BITMAP
FFFC00
800300
BFFD80
BFF280
B00D40
B7F340
B40AC0
B7FB40
B40540
B7FB40
B40C80
B7F100
B7FE00
B45A00
B45500
B42D00
B42B80
ENDCHAR
STARTCHAR s
ENCODING 115
SWIDTH 683 0
DWIDTH 16 0
BBX 15 17 1 0
BITMAP
1FF0
678C
5872
AFEC
D010
D000
AF40
B030
4FE8
3014
07EA
002A
202A
5FD4
B034
CFC8
3FF0
ENDCHAR
STARTCHAR t
ENCODING 116
SWIDTH 588 0
DWIDTH 14 0
BBX 12 17 1 0
BITMAP
FFF0
0000
FFF0
FFF0
0000
1680
1680
1680
1680
1680
1680
1680
1680
1680
1680
1680
1680
ENDCHAR
STARTCHAR u
ENCODING 117
SWIDTH 795 0
DWIDTH 19 0
BBX 17 18 1 -1
BITMAP
B41680
B41680
B41680
B41680
B41680
B41680
B41680
B41680
B41680
B41680
B41680
AA2A80
ADDA80
577500
288A00
17F400
0C1800
03E000
ENDCHAR
STARTCHAR v
ENCODING 118
SWIDTH 855 0
DWIDTH 21 0
BBX 20 17 0 0
BITMAP
EA03D0
560550
5505A0
2D0AA0
2A8AC0
1A8D40
159540
155680
0D6A80
0AAB00
0AB500
055500
055A00
02AA00
02AC00
02D400
015400
ENDCHAR
STARTCHAR w
ENCODING 119
SWIDTH 1129 0
DWIDTH 27 0
BBX 25 18 1 -1
BITMAP
B4551680
B4551680
B4551680
B4551680
B4551680
B4551680
B4551680
B4551680
B4551680
B4551680
B4551680
B6D7B680
A92A4A80
57CBF500
48360900
37C9F600
0E771800
0180E000
ENDCHAR
STARTCHAR x
ENCODING 120
SWIDTH 790 0
DWIDTH 19 0
BBX 19 17 0 0
BITMAP
D51560
56AB40
2AAA80
155500
15B500
0AAA00
055400
075400
02A800
055C00
055400
0AAA00
15A500
155500
2AAA80
5AAA40
D51560
ENDCHAR
STARTCHAR y
ENCODING 121
SWIDTH 733 0
DWIDTH 18 0
BBX 17 17 0 0
BITMAP
AE1780
5A1A80
552B00
2B3500
1AD600
156A00
0DAC00
0AD400
075800
05A800
02B000
02D000
02D000
02D000
02D000
02D000
02D000
ENDCHAR
STARTCHAR z
ENCODING 122
SWIDTH 714 0
DWIDTH 17 0
BBX 15 17 1 0
BITMAP
FF56
01AE
FEAA
FD54
02D4
02A8
0550
0550
0AA0
15A0
1540
2A80
4A80
557E
AAFE
AA00
D5FE
ENDCHAR
STARTCHAR braceleft
ENCODING 123
SWIDTH 396 0
DWIDTH 10 0
BBX 8 25 1 -5
BITMAP
0F
33
2C
57
54
58
58
58
58
58
18
E8
90
68
A8
58
58
58
58
58
54
53
2F
10
0F
ENDCHAR
STARTCHAR bar
ENCODING 124
SWIDTH 266 0
DWIDTH 6 0
BBX 4 22 1 -3
BITMAP
B0
B0
B0
B0
B0
B0
B0
B0
B0
B0
B0
B0
B0
B0
B0
B0
B0
B0
B0
B0
B0
B0
ENDCHAR
STARTCHAR braceright
ENCODING 125
SWIDTH 396 0
DWIDTH 10 0
BBX 8 25 1 -5
BITMAP
F0
88
34
D4
2C
2C
2C
2C
2C
2A
29
17
18
27
2A
2C
2C
2C
2C
2C
2C
D4
E4
08
F0
ENDCHAR
STARTCHAR asciitilde
ENCODING 126
SWIDTH 665 0
DWIDTH 16 0
BBX 14 5 1 13
BITMAP
3FCC
4014
BFF4
A018
CFE0
ENDCHAR
STARTCHAR uni00A0
ENCODING 160
SWIDTH 108 0
DWIDTH 3 0
BBX 1 1 0 0
BITMAP
00
ENDCHAR
STARTCHAR exclamdown
ENCODING 161
SWIDTH 336 0
DWIDTH 8 0
BBX 6 20 1 -1
BITMAP
B4
B4
B4
B4
B4
B4
B4
B4
B4
B4
B4
B4
B4
B4
00
00
FC
FC
00
FC
ENDCHAR
STARTCHAR cent
ENCODING 162
SWIDTH 708 0
DWIDTH 17 0
BBX 16 24 1 -2
BITMAP
0240
0240
0240
00C0
0E38
13E4
2C1B
53E4
AC94
AB68
D430
D400
D400
D400
AA30
ACD8
57E4
2C1B
13E4
0C18
03E0
0240
0240
0240
ENDCHAR
STARTCHAR sterling
ENCODING 163
SWIDTH 689 0
DWIDTH 17 0
BBX 15 20 1 0
BITMAP
0FF0
338C
4C72
57EC
A810
B7E0
B400
B400
B400
B7F8
B7F8
B400
B7F8
B400
B400
B400
B7F8
B7F8
B400
B7F8
ENDCHAR
STARTCHAR currency
ENCODING 164
SWIDTH 715 0
DWIDTH 17 0
BBX 16 18 1 0
BITMAP
3008
5014
A82B
DFFA
5194
2E68
2838
5014
5014
5014
5014
3014
2828
57D4
5C7C
A92B
5814
3018
ENDCHAR
STARTCHAR yen
ENCODING 165
SWIDTH 796 0
DWIDTH 19 0
BBX 19 19 0 0
BITMAP
FA0EE0
560D40
2D1580
2B1A80
1AAB00
15AD00
0D5600
0ADA00
06AC00
05B400
035400
036800
01A800
1DAF00
01A800
1DAF00
01A800
01A800
01A800
ENDCHAR
STARTCHAR brokenbar
ENCODING 166
SWIDTH 263 0
DWIDTH 6 0
BBX 4 22 1 -3
BITMAP
B0
B0
B0
B0
B0
B0
B0
B0
B0
00
00
00
B0
B0
B0
B0
B0
B0
B0
B0
B0
B0
ENDCHAR
STARTCHAR section
ENCODING 167
SWIDTH 108 0
DWIDTH 3 0
BBX 1 1 0 0
BITMAP
00
ENDCHAR
STARTCHAR dieresis
ENCODING 168
SWIDTH 556 0
DWIDTH 13 0
BBX 11 2 1 18
BITMAP
B160
B160
ENDCHAR
STARTCHAR copyright
ENCODING 169
SWIDTH 869 0
DWIDTH 21 0
BBX 19 19 1 1
BITMAP
03F800
0C0E00
180300
21F180
671CC0
4C0640
C80060
980020
980020
980020
980020
980020
C80060
440640
639CC0
31F180
180300
0E0E00
03F800
ENDCHAR
STARTCHAR ordfeminine
ENCODING 170
SWIDTH 833 0
DWIDTH 20 0
BBX 18 17 1 0
BITMAP
07F800
19E600
261900
4BE480
541A80
ABF540
B61540
D40B40
D40B40
D40B40
B40B40
AB1B40
54EB40
5BFB40
241B40
1BEB40
07FB40
ENDCHAR
STARTCHAR guillemotleft
ENCODING 171
SWIDTH 911 0
DWIDTH 22 0
BBX 20 12 1 3
BITMAP
008010
030060
1C8390
630CE0
9C9330
671CC0
9C2780
FB9A70
CE59D0
398730
0600C0
018030
ENDCHAR
STARTCHAR logicalnot
ENCODING 172
SWIDTH 718 0
DWIDTH 17 0
BBX 15 8 1 5
BITMAP
FFF6
0016
FFF6
0016
FFF6
0016
0016
0016
ENDCHAR
STARTCHAR registered
ENCODING 174
SWIDTH 869 0
DWIDTH 21 0
BBX 19 19 1 1
BITMAP
03F800
0C0E00
180300
200180
63F0C0
421840
C20C60
820420
820C20
83F820
83E020
823020
C21060
421840
620CC0
300180
180300
0E0E00
03F800
ENDCHAR
STARTCHAR degree
ENCODING 176
SWIDTH 330 0
DWIDTH 8 0
BBX 6 6 1 19
BITMAP
78
B4
CC
CC
B4
78
ENDCHAR
STARTCHAR plusminus
ENCODING 177
SWIDTH 598 0
DWIDTH 14 0
BBX 13 14 1 1
BITMAP
1580
1580
1580
F5F8
1580
F5F8
F5F8
1580
1580
1580
1580
0000
7FF0
7FF0
ENDCHAR
STARTCHAR uni00B2
ENCODING 178
SWIDTH 435 0
DWIDTH 10 0
BBX 9 15 1 4
BITMAP
FF00
BD80
4280
0280
0500
0500
0A00
1400
2800
2800
5000
A000
FF00
0000
FF00
ENDCHAR
STARTCHAR uni00B3
ENCODING 179
SWIDTH 515 0
DWIDTH 12 0
BBX 11 16 1 3
BITMAP
FE00
7980
8280
FD40
0340
0340
3F40
3880
0740
3CA0
02A0
42A0
29C0
FF40
0180
FE00
ENDCHAR
STARTCHAR acute
ENCODING 180
SWIDTH 472 0
DWIDTH 11 0
BBX 10 6 1 17
BITMAP
0100
0680
19C0
6600
9800
6000
ENDCHAR
STARTCHAR uni00B5
ENCODING 181
SWIDTH 802 0
DWIDTH 19 0
BBX 17 20 1 -3
BITMAP
B41580
B41580
B41580
B41580
B41580
B41580
B41580
B41580
B41580
B41580
B41580
B42A80
B5CA80
B57500
B48B00
B5F600
B41800
B5E000
B40000
B40000
ENDCHAR
STARTCHAR paragraph
ENCODING 182
SWIDTH 676 0
DWIDTH 16 0
BBX 14 20 1 -3
BITMAP
0FFC
3004
6FF4
53EC
AC2C
B3AC
D4AC
D7AC
A8AC
A7AC
58AC
27AC
1FAC
00AC
00AC
00AC
00AC
00AC
00AC
00EC
ENDCHAR
STARTCHAR periodcentered
ENCODING 183
SWIDTH 260 0
DWIDTH 6 0
BBX 4 5 1 9
BITMAP
F0
00
F0
00
F0
ENDCHAR
STARTCHAR cedilla
ENCODING 184
SWIDTH 321 0
DWIDTH 8 0
BBX 6 8 1 -9
BITMAP
14
74
C4
BC
A0
BC
80
7C
ENDCHAR
STARTCHAR uni00B9
ENCODING 185
SWIDTH 359 0
DWIDTH 9 0
BBX 7 13 1 6
BITMAP
FE
FE
2A
2A
2A
2A
2A
2A
2A
2A
2A
2A
2A
ENDCHAR
STARTCHAR ordmasculine
ENCODING 186
SWIDTH 835 0
DWIDTH 20 0
BBX 18 19 1 -1
BITMAP
01E000
0E1C00
13F200
2C0D00
5BF680
54CA80
AB3540
B40B40
D40AC0
D40AC0
D40AC0
B40B40
AA1540
54EB80
533280
2CCD00
13F200
0C0C00
03E000
ENDCHAR
STARTCHAR guillemotright
ENCODING 187
SWIDTH 912 0
DWIDTH 22 0
BBX 20 12 1 3
BITMAP
802000
601C00
9C1300
730CE0
CC9390
338E60
1E4790
E599F0
B9A630
CE19C0
300E00
C01000
ENDCHAR
STARTCHAR onequarter
ENCODING 188
SWIDTH 1236 0
DWIDTH 30 0
BBX 28 21 1 -2
BITMAP
FC0A8000
FC0B0000
2A0D0000
2A150540
2A150A80
2A160A80
2A1A1500
2A2A1500
2A2A2A00
2A2C2AA0
2A3434A0
2A5454A0
2A547FF0
00580000
00687FF0
00A80000
00A87FF0
00B000A0
00D000A0
01500000
01500000
ENDCHAR
STARTCHAR onehalf
ENCODING 189
SWIDTH 1154 0
DWIDTH 28 0
BBX 26 21 1 -2
BITMAP
FC0A8000
FC0B0000
2A0D0000
2A150000
2A157F80
2A160E40
2A1A3140
2A2A0140
2A2A0140
2A2C0280
2A340500
2A540700
2A540A00
00581400
00682800
00A82800
00A87F80
00B00000
00D07F80
01500000
01500000
ENDCHAR
STARTCHAR threequarters
ENCODING 190
SWIDTH 1345 0
DWIDTH 32 0
BBX 31 21 1 -2
BITMAP
FE00D000
7D815000
82815000
FD416150
0341A150
0342A3A0
3F42A2A0
3882C340
07434540
3CA54594
02A54A94
42A58A94
2DC68FFE
FE4A8000
018A8FFE
FE0B0000
000D0FFE
00150014
00150014
00160000
003A0000
ENDCHAR
STARTCHAR questiondown
ENCODING 191
SWIDTH 693 0
DWIDTH 17 0
BBX 16 20 0 0
BITMAP
1FF0
2308
DC74
27CA
1835
0FD5
002D
002D
1BD5
1BEA
1A1A
1BE4
1A38
1BC0
1A00
0000
3E00
3E00
0000
3E00
ENDCHAR
STARTCHAR Agrave
ENCODING 192
SWIDTH 936 0
DWIDTH 22 0
BBX 22 27 0 0
BITMAP
040000
0B0000
1CC000
033000
00C800
003000
000000
000000
00AA00
015A00
015500
02B500
02AB00
036A80
055680
057540
0AAD40
0AAAC0
0B4AA0
1545A0
15BD50
1AC350
2AFEB0
2D02A8
55FD68
560154
EA01D4
ENDCHAR
STARTCHAR Aacute
ENCODING 193
SWIDTH 936 0
DWIDTH 22 0
BBX 22 27 0 0
BITMAP
0000C0
000320
000CC0
003300
006C00
001000
000000
000000
00AA00
015A00
015500
02B500
02AB00
036A80
055680
057540
0AAD40
0AAAC0
0B4AA0
1545A0
15BD50
1AC350
2AFEB0
2D02A8
55FD68
560154
EA01D4
ENDCHAR
STARTCHAR Acircumflex
ENCODING 194
SWIDTH 936 0
DWIDTH 22 0
BBX 22 27 0 0
BITMAP
002800
006800
005400
007400
00AC00
00EA00
000000
000000
00AA00
015A00
015500
02B500
02AB00
036A80
055680
057540
0AAD40
0AAAC0
0B4AA0
1545A0
15BD50
1AC350
2AFEB0
2D02A8
55FD68
560154
EA01D4
ENDCHAR
STARTCHAR Atilde
ENCODING 195
SWIDTH 936 0
DWIDTH 22 0
BBX 22 26 0 0
BITMAP
03FCC0
0400C0
0BFF40
0A0080
0AFF00
000000
000000
00AA00
015A00
015500
02B500
02AB00
036A80
055680
057540
0AAD40
0AAAC0
0B4AA0
1545A0
15BD50
1AC350
2AFEB0
2D02A8
55FD68
560154
EA01D4
ENDCHAR
STARTCHAR Adieresis
ENCODING 196
SWIDTH 936 0
DWIDTH 22 0
BBX 22 24 0 0
BITMAP
054680
054680
000000
000000
000000
00AA00
015A00
015500
02B500
02AB00
036A80
055680
057540
0AAD40
0AAAC0
0B4AA0
1545A0
15BD50
1AC350
2AFEB0
2D02A8
55FD68
560154
EA01D4
ENDCHAR
STARTCHAR Aring
ENCODING 197
SWIDTH 936 0
DWIDTH 22 0
BBX 22 26 0 0
BITMAP
003800
007400
00CC00
00CA00
00BC00
004C00
003000
00AA00
015A00
015500
02B500
02AB00
036A80
055680
057540
0AAD40
0AAAC0
0B4AA0
1545A0
15BD50
1AC350
2AFEB0
2D02A8
55FD68
560154
EA01D4
ENDCHAR
STARTCHAR AE
ENCODING 198
SWIDTH 1198 0
DWIDTH 29 0
BBX 28 19 0 0
BITMAP
00ABFFF0
015BFFF0
01550000
02B5FFF0
02AB0000
02EA8000
05568000
05757FC0
06AD4000
0AAAFFC0
0B4ABFC0
1545A000
15BD6000
1AC35000
2AFEB000
2D02AFF0
55FD6FF0
56015800
EA01D7F0
ENDCHAR
STARTCHAR Ccedilla
ENCODING 199
SWIDTH 852 0
DWIDTH 20 0
BBX 19 28 1 -8
BITMAP
03FC00
0C3300
138C80
2CFB40
5B04A0
54FBC0
AB0500
AC0200
D40000
D40000
D40000
D40000
B40000
AA0200
A90D00
5672C0
299DA0
366240
09FD80
060600
00F800
01D000
021000
02E000
028000
02E000
020000
01E000
ENDCHAR
STARTCHAR Egrave
ENCODING 200
SWIDTH 706 0
DWIDTH 17 0
BBX 15 27 1 0
BITMAP
4000
B000
CC00
3B00
06C0
0100
0000
0000
B7FE
B7FE
B400
B7FE
B400
B400
B400
B7E0
B400
B7E0
B7E0
B400
B400
B400
B400
B7FE
B7FE
B400
B7FE
ENDCHAR
STARTCHAR Eacute
ENCODING 201
SWIDTH 706 0
DWIDTH 17 0
BBX 15 27 1 0
BITMAP
0004
001A
0066
0198
02E0
0100
0000
0000
B7FE
B7FE
B400
B7FE
B400
B400
B400
B7E0
B400
B7E0
B7E0
B400
B400
B400
B400
B7FE
B7FE
B400
B7FE
ENDCHAR
STARTCHAR Ecircumflex
ENCODING 202
SWIDTH 706 0
DWIDTH 17 0
BBX 15 27 1 0
BITMAP
0280
0380
0540
0540
0AA0
0AA0
0000
0000
B7FE
B7FE
B400
B7FE
B400
B400
B400
B7E0
B400
B7E0
B7E0
B400
B400
B400
B400
B7FE
B7FE
B400
B7FE
ENDCHAR
STARTCHAR Edieresis
ENCODING 203
SWIDTH 706 0
DWIDTH 17 0
BBX 15 24 1 0
BITMAP
3458
3458
0000
0000
0000
B7FE
B7FE
B400
B7FE
B400
B400
B400
B7E0
B400
B7E0
B7E0
B400
B400
B400
B400
B7FE
B7FE
B400
B7FE
ENDCHAR
STARTCHAR Igrave
ENCODING 204
SWIDTH 338 0
DWIDTH 8 0
BBX 11 27 -4 0
BITMAP
2000
9800
6600
1980
0640
0180
0000
0000
05A0
05A0
05A0
05A0
05A0
05A0
05A0
05A0
05A0
05A0
05A0
05A0
05A0
05A0
05A0
05A0
05A0
05A0
05A0
ENDCHAR
STARTCHAR Iacute
ENCODING 205
SWIDTH 338 0
DWIDTH 8 0
BBX 11 27 1 0
BITMAP
00C0
0320
0CC0
3300
4C00
3000
0000
0000
B400
B400
B400
B400
B400
B400
B400
B400
B400
B400
B400
B400
B400
B400
B400
B400
B400
B400
B400
ENDCHAR
STARTCHAR Icircumflex
ENCODING 206
SWIDTH 338 0
DWIDTH 8 0
BBX 8 27 0 0
BITMAP
1C
34
2C
5A
5A
E5
00
00
5A
5A
5A
5A
5A
5A
5A
5A
5A
5A
5A
5A
5A
5A
5A
5A
5A
5A
5A
ENDCHAR
STARTCHAR Idieresis
ENCODING 207
SWIDTH 338 0
DWIDTH 8 0
BBX 12 24 -2 0
BITMAP
A950
A950
0000
0000
0000
1680
1680
1680
1680
1680
1680
1680
1680
1680
1680
1680
1680
1680
1680
1680
1680
1680
1680
1680
ENDCHAR
STARTCHAR Eth
ENCODING 208
SWIDTH 905 0
DWIDTH 22 0
BBX 20 19 1 0
BITMAP
FFFE00
BFF900
A00680
AFF940
A806A0
AFFAA0
AC0550
FF0350
000350
FF02D0
FF0350
000550
AC0560
ABFAA0
A80DA0
AFF340
BFFC80
800300
7FFC00
ENDCHAR
STARTCHAR Ntilde
ENCODING 209
SWIDTH 877 0
DWIDTH 21 0
BBX 19 26 1 0
BITMAP
0FF280
100280
17FD00
280300
29FC00
000000
2A0000
D505A0
D505A0
AA85A0
BA85A0
B545A0
AAA5A0
BAA5A0
B555A0
B2BDA0
B6ADA0
B555A0
B555A0
B4AAA0
B455A0
B45560
B42AA0
B42AA0
B41560
B40AA0
ENDCHAR
STARTCHAR Ograve
ENCODING 210
SWIDTH 933 0
DWIDTH 22 0
BBX 21 28 1 -1
BITMAP
080000
160000
398000
066000
019000
006000
000000
03FC00
0C3300
138C80
2CFB40
5B04A0
54FB50
AB0550
AC02B0
D402A8
D401A8
D401A8
D401A8
B402A8
AA02D0
A90D50
5672A0
299DA0
366240
09FD80
060600
00F800
ENDCHAR
STARTCHAR Oacute
ENCODING 211
SWIDTH 933 0
DWIDTH 22 0
BBX 21 28 1 -1
BITMAP
000180
000640
001980
006600
009800
002000
000000
03FC00
0C3300
138C80
2CFB40
5B04A0
54FB50
AB0550
AC02B0
D402A8
D401A8
D401A8
D401A8
B402A8
AA02D0
A90D50
5672A0
299DA0
366240
09FD80
060600
00F800
ENDCHAR
STARTCHAR Ocircumflex
ENCODING 212
SWIDTH 933 0
DWIDTH 22 0
BBX 21 28 1 -1
BITMAP
005000
00D000
00A800
016800
015800
01D400
000000
03FC00
0C3300
138C80
2CFB40
5B04A0
54FB50
AB0550
AC02B0
D402A8
D401A8
D401A8
D401A8
B402A8
AA02D0
A90D50
5672A0
299DA0
366240
09FD80
060600
00F800
ENDCHAR
STARTCHAR Otilde
ENCODING 213
SWIDTH 933 0
DWIDTH 22 0
BBX 21 27 1 -1
BITMAP
07F980
080180
17FE80
140100
15FE00
000000
03FC00
0C3300
138C80
2CFB40
5B04A0
54FB50
AB0550
AC02B0
D402A8
D401A8
D401A8
D401A8
B402A8
AA02D0
A90D50
5672A0
299DA0
366240
09FD80
060600
00F800
ENDCHAR
STARTCHAR Odieresis
ENCODING 214
SWIDTH 933 0
DWIDTH 22 0
BBX 21 25 1 -1
BITMAP
0A8D00
0A8D00
000000
000000
03FC00
0C3300
138C80
2CFB40
5B04A0
54FB50
AB0550
AC02B0
D402A8
D401A8
D401A8
D401A8
B402A8
AA02D0
A90D50
5672A0
299DA0
366240
09FD80
060600
00F800
ENDCHAR
STARTCHAR multiply
ENCODING 215
SWIDTH 790 0
DWIDTH 19 0
BBX 19 17 0 0
BITMAP
D51560
56AB40
2AAA80
155500
15B500
0AAA00
055400
075400
02A800
055C00
055400
0AAA00
15A500
155500
2AAA80
5AAA40
D51560
ENDCHAR
STARTCHAR Oslash
ENCODING 216
SWIDTH 938 0
DWIDTH 23 0
BBX 21 27 1 -4
BITMAP
000200
000280
000540
03FD40
0C3380
138C80
2CFB40
5B04A0
54FB50
AA0550
AE02B0
D402A8
D401A8
D401A8
D401A8
B402A8
AA02D0
A90D50
5672A0
299DA0
366240
09FD80
160600
28F800
2A0000
140000
040000
ENDCHAR
STARTCHAR Ugrave
ENCODING 217
SWIDTH 905 0
DWIDTH 22 0
BBX 20 28 1 -1
BITMAP
180000
260000
198000
066000
019000
004000
000000
000000
B40350
B40350
B40350
B40350
B40350
B40350
B40350
B40350
B40350
B40350
B40350
B40350
AA0560
AB0AA0
54E6A0
6B9940
246680
1BF900
060600
01F800
ENDCHAR
STARTCHAR Uacute
ENCODING 218
SWIDTH 905 0
DWIDTH 22 0
BBX 20 28 1 -1
BITMAP
000100
000680
0019C0
006600
009800
006000
000000
000000
B40350
B40350
B40350
B40350
B40350
B40350
B40350
B40350
B40350
B40350
B40350
B40350
AA0560
AB0AA0
54E6A0
6B9940
246680
1BF900
060600
01F800
ENDCHAR
STARTCHAR Ucircumflex
ENCODING 219
SWIDTH 905 0
DWIDTH 22 0
BBX 20 28 1 -1
BITMAP
00E000
00D000
015000
016800
016800
029800
000000
000000
B40350
B40350
B40350
B40350
B40350
B40350
B40350
B40350
B40350
B40350
B40350
B40350
AA0560
AB0AA0
54E6A0
6B9940
246680
1BF900
060600
01F800
ENDCHAR
STARTCHAR Udieresis
ENCODING 220
SWIDTH 905 0
DWIDTH 22 0
BBX 20 25 1 -1
BITMAP
0B1500
0B1500
000000
000000
000000
B40350
B40350
B40350
B40350
B40350
B40350
B40350
B40350
B40350
B40350
B40350
B40350
AA0560
AB0AA0
54E6A0
6B9940
246680
1BF900
060600
01F800
ENDCHAR
STARTCHAR Yacute
ENCODING 221
SWIDTH 789 0
DWIDTH 19 0
BBX 19 27 0 0
BITMAP
000100
000680
001B00
006C00
01B000
004000
000000
8400A0
6A0B40
560D40
351580
2B1A80
1AAB00
15B500
0D5600
0B6A00
06AC00
05B400
035800
036800
02B000
02B000
02B000
02B000
02B000
02B000
02B000
ENDCHAR
STARTCHAR Thorn
ENCODING 222
SWIDTH 798 0
DWIDTH 19 0
BBX 17 22 1 -2
BITMAP
B40000
B40000
B7F000
B40C00
B7F200
B7ED00
B41700
B7EA80
B41680
B41580
B41580
B41580
B42A80
B6CA80
B7F500
B41B00
B7E600
B41800
B7E000
B40000
B40000
B40000
ENDCHAR
STARTCHAR germandbls
ENCODING 223
SWIDTH 826 0
DWIDTH 20 0
BBX 18 22 1 -2
BITMAP
0FFC00
33F200
6C0D00
57F280
A80D80
AFF540
B40D40
B7F540
B40580
B7FA80
B40580
B7FB40
B40B40
B40B40
B7F540
B40D40
B7E280
B7FD00
B40200
B7F800
B40000
B40000
ENDCHAR
STARTCHAR agrave
ENCODING 224
SWIDTH 832 0
DWIDTH 20 0
BBX 18 25 1 0
BITMAP
200000
580000
360000
0D8000
036000
008000
000000
000000
07F800
19E600
261B00
5BE500
541A80
ABE580
B41540
D40B40
D40B40
D40B40
D40B40
AB1B40
6CEB40
53EB40
2C1B40
1BEB40
07EB40
ENDCHAR
STARTCHAR aacute
ENCODING 225
SWIDTH 832 0
DWIDTH 20 0
BBX 18 25 1 0
BITMAP
000200
000D00
003380
00CC00
013000
00C000
000000
000000
07F800
19E600
261B00
5BE500
541A80
ABE580
B41540
D40B40
D40B40
D40B40
D40B40
AB1B40
6CEB40
53EB40
2C1B40
1BEB40
07EB40
ENDCHAR
STARTCHAR acircumflex
ENCODING 226
SWIDTH 832 0
DWIDTH 20 0
BBX 18 25 1 0
BITMAP
014000
01A000
02A000
036000
035000
057000
000000
000000
07F800
19E600
261B00
5BE500
541A80
ABE580
B41540
D40B40
D40B40
D40B40
D40B40
AB1B40
6CEB40
53EB40
2C1B40
1BEB40
07EB40
ENDCHAR
STARTCHAR atilde
ENCODING 227
SWIDTH 832 0
DWIDTH 20 0
BBX 18 23 1 0
BITMAP
0FF500
300500
2FF900
300600
53F800
000000
07F800
19E600
261B00
5BE500
541A80
ABE580
B41540
D40B40
D40B40
D40B40
D40B40
AB1B40
6CEB40
53EB40
2C1B40
1BEB40
07EB40
ENDCHAR
STARTCHAR adieresis
ENCODING 228
SWIDTH 832 0
DWIDTH 20 0
BBX 18 21 1 0
BITMAP
162C00
162C00
000000
000000
07F800
19E600
261B00
5BE500
541A80
ABE580
B41540
D40B40
D40B40
D40B40
D40B40
AB1B40
6CEB40
53EB40
2C1B40
1BEB40
07EB40
ENDCHAR
STARTCHAR aring
ENCODING 229
SWIDTH 832 0
DWIDTH 20 0
BBX 18 25 1 0
BITMAP
01C000
02E000
033000
053000
03D000
012000
00C000
000000
07F800
19E600
261B00
5BE500
541A80
ABE580
B41540
D40B40
D40B40
D40B40
D40B40
AB1B40
6CEB40
53EB40
2C1B40
1BEB40
07EB40
ENDCHAR
STARTCHAR ae
ENCODING 230
SWIDTH 1166 0
DWIDTH 28 0
BBX 26 17 1 0
BITMAP
07FB7FC0
19E74000
261B7FC0
5BE57FC0
541AC000
ABE54000
B4157FC0
D40B4000
D40B7FC0
D40B4000
D40B7FC0
AB1B4000
6CEB4000
53EB7FC0
2C1B7FC0
1BEB4000
07EB7FC0
ENDCHAR
STARTCHAR ccedilla
ENCODING 231
SWIDTH 736 0
DWIDTH 18 0
BBX 16 26 1 -8
BITMAP
01E0
0E1C
13F6
2C09
53F6
54CC
AB30
B400
D400
D400
D400
B400
AA10
ADEC
5332
2CCD
13F2
0C0C
03F0
03C0
0440
05C0
0600
05C0
0400
03C0
ENDCHAR
STARTCHAR egrave
ENCODING 232
SWIDTH 666 0
DWIDTH 16 0
BBX 15 25 0 0
BITMAP
2000
9800
6600
1980
0640
0180
0000
0000
5BFE
5A00
5BFE
5BFE
5A00
5A00
5BFE
5A00
5BFE
5A00
5BFE
5A00
5A00
5BFE
5BFE
5A00
5BFE
ENDCHAR
STARTCHAR eacute
ENCODING 233
SWIDTH 666 0
DWIDTH 16 0
BBX 15 25 1 0
BITMAP
000C
0032
00CC
0330
04C0
0300
0000
0000
B7FC
B400
B7FC
B7FC
B400
B400
B7FC
B400
B7FC
B400
B7FC
B400
B400
B7FC
B7FC
B400
B7FC
ENDCHAR
STARTCHAR ecircumflex
ENCODING 234
SWIDTH 666 0
DWIDTH 16 0
BBX 14 25 1 0
BITMAP
0280
0680
0580
0B40
0B40
1CA0
0000
0000
B7FC
B400
B7FC
B7FC
B400
B400
B7FC
B400
B7FC
B400
B7FC
B400
B400
B7FC
B7FC
B400
B7FC
ENDCHAR
STARTCHAR edieresis
ENCODING 235
SWIDTH 666 0
DWIDTH 16 0
BBX 14 21 1 0
BITMAP
54A8
54A8
0000
0000
B7FC
B400
B7FC
B7FC
B400
B400
B7FC
B400
B7FC
B400
B7FC
B400
B400
B7FC
B7FC
B400
B7FC
ENDCHAR
STARTCHAR igrave
ENCODING 236
SWIDTH 337 0
DWIDTH 8 0
BBX 11 25 -4 0
BITMAP
2000
9800
6600
1980
0640
0180
0000
0000
05A0
05A0
05A0
05A0
05A0
05A0
05A0
05A0
05A0
05A0
05A0
05A0
05A0
05A0
05A0
05A0
05A0
ENDCHAR
STARTCHAR iacute
ENCODING 237
SWIDTH 337 0
DWIDTH 8 0
BBX 11 25 1 0
BITMAP
00C0
0320
0CC0
3300
4C00
3000
0000
0000
B400
B400
B400
B400
B400
B400
B400
B400
B400
B400
B400
B400
B400
B400
B400
B400
B400
ENDCHAR
STARTCHAR icircumflex
ENCODING 238
SWIDTH 337 0
DWIDTH 8 0
BBX 8 25 0 0
BITMAP
1C
34
2C
5A
5A
E5
00
00
5A
5A
5A
5A
5A
5A
5A
5A
5A
5A
5A
5A
5A
5A
5A
5A
5A
ENDCHAR
STARTCHAR idieresis
ENCODING 239
SWIDTH 337 0
DWIDTH 8 0
BBX 12 21 -2 0
BITMAP
A950
A950
0000
0000
1680
1680
1680
1680
1680
1680
1680
1680
1680
1680
1680
1680
1680
1680
1680
1680
1680
ENDCHAR
STARTCHAR eth
ENCODING 240
SWIDTH 783 0
DWIDTH 19 0
BBX 17 21 1 -1
BITMAP
0FF000
310C00
5E7200
27CD00
183500
07EA80
003A80
001680
1FD680
219680
5C5680
A7D680
B81680
D7D680
D42A80
D3CA80
AE7500
518A00
6FF600
181800
03C000
ENDCHAR
STARTCHAR ntilde
ENCODING 241
SWIDTH 787 0
DWIDTH 19 0
BBX 17 23 1 0
BITMAP
1FE500
200500
4FFA00
500600
57F800
000000
AA0A80
D50A80
D50A80
AA8A80
D54A80
B54A80
AAAA80
BAAA80
B55A80
B3F680
B2AA80
B15680
B15680
B0AA80
B0AA80
B05580
B02B80
ENDCHAR
STARTCHAR ograve
ENCODING 242
SWIDTH 833 0
DWIDTH 20 0
BBX 18 26 1 -1
BITMAP
300000
4C0000
330000
0CC000
032000
00C000
000000
01E000
0E1C00
13F200
2C0900
53F680
54CA80
AB3540
B40D40
D40B40
D40AC0
D40AC0
B40B40
AA1540
ADEA80
533280
2CCD00
13F200
0C0C00
03F000
ENDCHAR
STARTCHAR oacute
ENCODING 243
SWIDTH 833 0
DWIDTH 20 0
BBX 18 26 1 -1
BITMAP
000200
000C80
003300
00CC00
013000
00C000
000000
01E000
0E1C00
13F200
2C0900
53F680
54CA80
AB3540
B40D40
D40B40
D40AC0
D40AC0
B40B40
AA1540
ADEA80
533280
2CCD00
13F200
0C0C00
03F000
ENDCHAR
STARTCHAR ocircumflex
ENCODING 244
SWIDTH 833 0
DWIDTH 20 0
BBX 18 26 1 -1
BITMAP
01C000
01A000
01A000
02D000
02D000
053800
000000
01E000
0E1C00
13F200
2C0900
53F680
54CA80
AB3540
B40D40
D40B40
D40AC0
D40AC0
B40B40
AA1540
ADEA80
533280
2CCD00
13F200
0C0C00
03F000
ENDCHAR
STARTCHAR otilde
ENCODING 245
SWIDTH 833 0
DWIDTH 20 0
BBX 18 24 1 -1
BITMAP
0FF500
100500
2FF900
280600
33F800
01E000
0E1C00
13F200
2C0900
53F680
54CA80
AB3540
B40D40
D40B40
D40AC0
D40AC0
B40B40
AA1540
ADEA80
533280
2CCD00
13F200
0C0C00
03F000
ENDCHAR
STARTCHAR odieresis
ENCODING 246
SWIDTH 833 0
DWIDTH 20 0
BBX 18 22 1 -1
BITMAP
162A00
162A00
000000
01E000
0E1C00
13F200
2C0900
53F680
54CA80
AB3540
B40D40
D40B40
D40AC0
D40AC0
B40B40
AA1540
ADEA80
533280
2CCD00
13F200
0C0C00
03F000
ENDCHAR
STARTCHAR divide
ENCODING 247
SWIDTH 260 0
DWIDTH 6 0
BBX 8 14 -1 1
BITMAP
2C
2C
2C
2C
00
00
FF
FF
00
00
2C
2C
2C
2C
ENDCHAR
STARTCHAR oslash
ENCODING 248
SWIDTH 832 0
DWIDTH 20 0
BBX 18 21 1 -2
BITMAP
000E00
01EF80
0E1900
13F600
2C0900
53F680
74CA80
AB3540
B40D40
D40B40
D40AC0
D40AC0
B40B40
AA1540
A5EA80
533680
2CCD00
13F200
2C0C00
73F000
1C0000
ENDCHAR
STARTCHAR ugrave
ENCODING 249
SWIDTH 795 0
DWIDTH 19 0
BBX 17 26 1 -1
BITMAP
200000
580000
660000
1D8000
036000
008000
000000
000000
B41680
B41680
B41680
B41680
B41680
B41680
B41680
B41680
B41680
B41680
B41680
AA2A80
ADDA80
577500
288A00
17F400
0C1800
03E000
ENDCHAR
STARTCHAR uacute
ENCODING 250
SWIDTH 795 0
DWIDTH 19 0
BBX 17 26 1 -1
BITMAP
000200
000D00
003300
00CC00
017000
008000
000000
000000
B41680
B41680
B41680
B41680
B41680
B41680
B41680
B41680
B41680
B41680
B41680
AA2A80
ADDA80
577500
288A00
17F400
0C1800
03E000
ENDCHAR
STARTCHAR ucircumflex
ENCODING 251
SWIDTH 795 0
DWIDTH 19 0
BBX 17 26 1 -1
BITMAP
014000
01C000
02A000
02A000
055000
055000
000000
000000
B41680
B41680
B41680
B41680
B41680
B41680
B41680
B41680
B41680
B41680
B41680
AA2A80
ADDA80
577500
288A00
17F400
0C1800
03E000
ENDCHAR
STARTCHAR udieresis
ENCODING 252
SWIDTH 795 0
DWIDTH 19 0
BBX 17 22 1 -1
BITMAP
1A2C00
1A2C00
000000
000000
B41680
B41680
B41680
B41680
B41680
B41680
B41680
B41680
B41680
B41680
B41680
AA2A80
ADDA80
577500
288A00
17F400
0C1800
03E000
ENDCHAR
STARTCHAR yacute
ENCODING 253
SWIDTH 733 0
DWIDTH 18 0
BBX 17 25 0 0
BITMAP
000200
000D00
003380
00CC00
013000
00C000
000000
000000
AE1780
5A1A80
552B00
2B3500
1AD600
156A00
0DAC00
0AD400
075800
05A800
02B000
02D000
02D000
02D000
02D000
02D000
02D000
ENDCHAR
STARTCHAR thorn
ENCODING 254
SWIDTH 833 0
DWIDTH 20 0
BBX 18 22 1 -3
BITMAP
B40000
B40000
B40000
B40000
B40000
B5FE00
B5F100
B40680
B5F940
B40540
B5FAC0
B40AC0
B5F340
B40D40
B5F280
B5FD80
B40200
B5F800
B40000
B40000
B40000
B40000
ENDCHAR
STARTCHAR ydieresis
ENCODING 255
SWIDTH 733 0
DWIDTH 18 0
BBX 17 21 0 0
BITMAP
162A00
162A00
000000
000000
AE1780
5A1A80
552B00
2B3500
1AD600
156A00
0DAC00
0AD400
075800
05A800
02B000
02D000
02D000
02D000
02D000
02D000
02D000
ENDCHAR
STARTCHAR Amacron
ENCODING 256
SWIDTH 936 0
DWIDTH 22 0
BBX 22 19 0 0
BITMAP
00AA00
015A00
015500
02B500
02AB00
036A80
055680
057540
0AAD40
0AAAC0
0B4AA0
1545A0
15BD50
1AC350
2AFEB0
2D02A8
55FD68
560154
EA01D4
ENDCHAR
STARTCHAR amacron
ENCODING 257
SWIDTH 832 0
DWIDTH 20 0
BBX 18 17 1 0
BITMAP
07F800
19E600
261B00
5BE500
541A80
ABE580
B41540
D40B40
D40B40
D40B40
D40B40
AB1B40
6CEB40
53EB40
2C1B40
1BEB40
07EB40
ENDCHAR
STARTCHAR Abreve
ENCODING 258
SWIDTH 936 0
DWIDTH 22 0
BBX 22 25 0 0
BITMAP
00C600
00BA00
007C00
000000
000000
000000
00AA00
015A00
015500
02B500
02AB00
036A80
055680
057540
0AAD40
0AAAC0
0B4AA0
1545A0
15BD50
1AC350
2AFEB0
2D02A8
55FD68
560154
EA01D4
ENDCHAR
STARTCHAR abreve
ENCODING 259
SWIDTH 832 0
DWIDTH 20 0
BBX 18 22 1 0
BITMAP
063000
05D000
03E000
000000
000000
07F800
19E600
261B00
5BE500
541A80
ABE580
B41540
D40B40
D40B40
D40B40
D40B40
AB1B40
6CEB40
53EB40
2C1B40
1BEB40
07EB40
ENDCHAR
STARTCHAR Aogonek
ENCODING 260
SWIDTH 937 0
DWIDTH 23 0
BBX 21 27 1 -8
BITMAP
01D400
02AC00
02AA00
035A00
055500
05B500
0AAB00
0AAA80
0D5680
155540
159540
2A8AC0
2AFAA0
2D06A0
55FD50
560550
6BFEB0
AA02A8
F401E8
00C000
010000
02C000
028000
02C000
02C000
02C000
02C000
ENDCHAR
STARTCHAR aogonek
ENCODING 261
SWIDTH 832 0
DWIDTH 20 0
BBX 18 25 1 -8
BITMAP
07F800
19E600
261B00
5BE500
541A80
ABE580
B41540
D40B40
D40B40
D40B40
D40B40
AB1B40
6CEB40
53EB40
2C1B40
1BEB40
072B40
03C000
040000
058000
0A0000
0A8000
0A8000
0A8000
0A8000
ENDCHAR
STARTCHAR Cacute
ENCODING 262
SWIDTH 852 0
DWIDTH 20 0
BBX 19 28 1 -1
BITMAP
000180
000640
001980
006600
009800
002000
000000
03FC00
0C3300
138C80
2CFB40
5B04A0
54FBC0
AB0500
AC0200
D40000
D40000
D40000
D40000
B40000
AA0200
A90D00
5672C0
299DA0
366240
09FD80
060600
00F800
ENDCHAR
STARTCHAR cacute
ENCODING 263
SWIDTH 736 0
DWIDTH 18 0
BBX 17 26 1 -1
BITMAP
000200
000C80
003300
00CC00
013000
00C000
000000
01E000
0E1C00
13F600
2C0900
53F600
54CC00
AB3000
B40000
D40000
D40000
D40000
B40000
AA1000
ADEC00
533200
2CCD00
13F200
0C0C00
03F000
ENDCHAR
STARTCHAR Cdotaccent
ENCODING 266
SWIDTH 852 0
DWIDTH 20 0
BBX 19 26 1 -1
BITMAP
00F000
00F000
000000
00F000
000000
03FC00
0C3300
138C80
2CFB40
5B04A0
54FBC0
AB0500
AC0200
D40000
D40000
D40000
D40000
B40000
AA0200
A90D00
5672C0
299DA0
366240
09FD80
060600
00F800
ENDCHAR
STARTCHAR cdotaccent
ENCODING 267
SWIDTH 736 0
DWIDTH 18 0
BBX 16 24 1 -1
BITMAP
01E0
01E0
0000
01E0
0000
01E0
0E1C
13F6
2C09
53F6
54CC
AB30
B400
D400
D400
D400
B400
AA10
ADEC
5332
2CCD
13F2
0C0C
03F0
ENDCHAR
STARTCHAR Ccaron
ENCODING 268
SWIDTH 852 0
DWIDTH 20 0
BBX 19 28 1 -1
BITMAP
019400
015800
016800
00A800
00D000
005000
000000
03FC00
0C3300
138C80
2CFB40
5B04A0
54FBC0
AB0500
AC0200
D40000
D40000
D40000
D40000
B40000
AA0200
A90D00
5672C0
299DA0
366240
09FD80
060600
00F800
ENDCHAR
STARTCHAR ccaron
ENCODING 269
SWIDTH 736 0
DWIDTH 18 0
BBX 16 26 1 -1
BITMAP
0538
02D0
02D0
01A0
01A0
01E0
0000
01E0
0E1C
13F6
2C09
53F6
54CC
AB30
B400
D400
D400
D400
B400
AA10
ADEC
5332
2CCD
13F2
0C0C
03F0
ENDCHAR
STARTCHAR Dcaron
ENCODING 270
SWIDTH 886 0
DWIDTH 21 0
BBX 20 27 1 0
BITMAP
029800
01A800
016800
015000
00D000
00E000
000000
000000
FFFE00
BFFB00
A00680
BFFB40
B00540
B7FAA0
B405A0
B40560
B40550
B40550
B40560
B40560
B40AA0
B7F2A0
B00D40
BFF2C0
BFFD80
800200
FFFC00
ENDCHAR
STARTCHAR dcaron
ENCODING 271
SWIDTH 1084 0
DWIDTH 26 0
BBX 24 17 1 0
BITMAP
FFF00B
800C0B
BFFB0B
BFE583
B01A85
B7E549
B4154E
B40B40
B40AC0
B40B40
B41540
B7E540
B01A80
BFC480
BFFB00
800600
FFF800
ENDCHAR
STARTCHAR Dcroat
ENCODING 272
SWIDTH 888 0
DWIDTH 21 0
BBX 22 19 -1 0
BITMAP
3FFF80
2FFEC0
2801A0
2FFED0
2C0150
2DFEA8
2D0168
EDE158
2D0154
EDE154
EDE158
2D0158
2D02A8
2DFCA8
2C0350
2FFCB0
2FFF60
2000C0
3FFF00
ENDCHAR
STARTCHAR dcroat
ENCODING 273
SWIDTH 833 0
DWIDTH 20 0
BBX 20 17 -1 0
BITMAP
3FFC00
200300
2FFEC0
2FF940
2C06A0
2DF950
2D0550
EDE2D0
2D02B0
EDE2D0
2D0550
2DF950
2C06A0
2FF160
2FFEC0
200180
3FFE00
ENDCHAR
STARTCHAR Emacron
ENCODING 274
SWIDTH 706 0
DWIDTH 17 0
BBX 15 19 1 0
BITMAP
B7FE
B7FE
B400
B7FE
B400
B400
B400
B7E0
B400
B7E0
B7E0
B400
B400
B400
B400
B7FE
B7FE
B400
B7FE
ENDCHAR
STARTCHAR emacron
ENCODING 275
SWIDTH 666 0
DWIDTH 16 0
BBX 14 17 1 0
BITMAP
B7FC
B400
B7FC
B7FC
B400
B400
B7FC
B400
B7FC
B400
B7FC
B400
B400
B7FC
B7FC
B400
B7FC
ENDCHAR
STARTCHAR Ebreve
ENCODING 276
SWIDTH 706 0
DWIDTH 17 0
BBX 15 25 1 0
BITMAP
0C60
0BA0
07C0
0000
0000
0000
B7FE
B7FE
B400
B7FE
B400
B400
B400
B7E0
B400
B7E0
B7E0
B400
B400
B400
B400
B7FE
B7FE
B400
B7FE
ENDCHAR
STARTCHAR ebreve
ENCODING 277
SWIDTH 666 0
DWIDTH 16 0
BBX 14 22 1 0
BITMAP
14A0
0B40
0780
0000
0000
B7FC
B400
B7FC
B7FC
B400
B400
B7FC
B400
B7FC
B400
B7FC
B400
B400
B7FC
B7FC
B400
B7FC
ENDCHAR
STARTCHAR Edotaccent
ENCODING 278
SWIDTH 706 0
DWIDTH 17 0
BBX 15 26 1 0
BITMAP
07C0
0000
07C0
0000
07C0
0000
0000
B7FE
B7FE
B400
B7FE
B400
B400
B400
B7E0
B400
B7E0
B7E0
B400
B400
B400
B400
B7FE
B7FE
B400
B7FE
ENDCHAR
STARTCHAR edotaccent
ENCODING 279
SWIDTH 666 0
DWIDTH 16 0
BBX 14 24 1 0
BITMAP
0780
0000
0780
0000
0780
0000
0000
B7FC
B400
B7FC
B7FC
B400
B400
B7FC
B400
B7FC
B400
B7FC
B400
B400
B7FC
B7FC
B400
B7FC
ENDCHAR
STARTCHAR Eogonek
ENCODING 280
SWIDTH 706 0
DWIDTH 17 0
BBX 15 26 1 -7
BITMAP
B7FE
B7FE
B400
B7FE
B400
B400
B400
B7E0
B400
B7E0
B7E0
B400
B400
B400
B400
B7FE
B7FE
B400
B7FE
0018
0016
0018
001A
001A
001A
001A
ENDCHAR
STARTCHAR eogonek
ENCODING 281
SWIDTH 666 0
DWIDTH 16 0
BBX 14 24 1 -7
BITMAP
B7FC
B400
B7FC
B7FC
B400
B400
B7FC
B400
B7FC
B400
B7FC
B400
B400
B7FC
B7FC
B400
B7FC
0030
002C
0028
0034
0034
0034
0034
ENDCHAR
STARTCHAR Ecaron
ENCODING 282
SWIDTH 706 0
DWIDTH 17 0
BBX 15 27 1 0
BITMAP
0AA0
0AA0
0740
0540
0340
0280
0000
0000
B7FE
B7FE
B400
B7FE
B400
B400
B400
B7E0
B400
B7E0
B7E0
B400
B400
B400
B400
B7FE
B7FE
B400
B7FE
ENDCHAR
STARTCHAR ecaron
ENCODING 283
SWIDTH 666 0
DWIDTH 16 0
BBX 14 25 1 0
BITMAP
1CA0
0B40
0B40
0580
0680
0280
0000
0000
B7FC
B400
B7FC
B7FC
B400
B400
B7FC
B400
B7FC
B400
B7FC
B400
B400
B7FC
B7FC
B400
B7FC
ENDCHAR
STARTCHAR Gbreve
ENCODING 286
SWIDTH 908 0
DWIDTH 22 0
BBX 20 26 1 -1
BITMAP
018C00
017400
00F800
000000
000000
03FC00
0C3300
138C80
2CFB40
5B04A0
54FBC0
AB0500
AC0200
D40000
D40000
D402D0
D402D0
B402D0
AA02D0
A906D0
547AD0
2B9ED0
3662D0
19FED0
0606D0
01F800
ENDCHAR
STARTCHAR gbreve
ENCODING 287
SWIDTH 827 0
DWIDTH 20 0
BBX 18 23 1 -1
BITMAP
052800
02D000
01E000
000000
01E000
0E1C00
13F600
2C0900
53F600
54CC00
AB3000
B40000
D40000
D40B40
D40B40
B40B40
AA1B40
ADEB40
533B40
2CCB40
13FB40
0C0B40
03F000
ENDCHAR
STARTCHAR Gdotaccent
ENCODING 288
SWIDTH 908 0
DWIDTH 22 0
BBX 20 26 1 -1
BITMAP
00F000
00F000
000000
00F000
000000
03FC00
0C3300
138C80
2CFB40
5B04A0
54FBC0
AB0500
AC0200
D40000
D40000
D402D0
D402D0
B402D0
AA02D0
A906D0
547AD0
2B9ED0
3662D0
19FED0
0606D0
01F800
ENDCHAR
STARTCHAR gdotaccent
ENCODING 289
SWIDTH 827 0
DWIDTH 20 0
BBX 18 24 1 -1
BITMAP
01E000
01E000
000000
01E000
000000
01E000
0E1C00
13F600
2C0900
53F600
54CC00
AB3000
B40000
D40000
D40B40
D40B40
B40B40
AA1B40
ADEB40
533B40
2CCB40
13FB40
0C0B40
03F000
ENDCHAR
STARTCHAR Gcommaaccent
ENCODING 290
SWIDTH 908 0
DWIDTH 22 0
BBX 20 29 1 -9
BITMAP
03FC00
0C3300
138C80
2CFB40
5B04A0
54FBC0
AB0500
AC0200
D40000
D40000
D402D0
D402D0
B402D0
AA02D0
A906D0
547AD0
2B9ED0
3662D0
19FED0
0606D0
01F800
000000
00B000
00B000
00B000
003000
005000
009000
00E000
ENDCHAR
STARTCHAR gcommaaccent
ENCODING 291
SWIDTH 827 0
DWIDTH 20 0
BBX 18 19 1 -1
BITMAP
01E000
0E1C00
13F600
2C0900
53F600
54CC00
AB3000
B40000
D40000
D40B40
D40B40
B40B40
AA1B40
ADEB40
533B40
2CCB40
13FB40
0C0B40
03F000
ENDCHAR
STARTCHAR Hcircumflex
ENCODING 292
SWIDTH 901 0
DWIDTH 22 0
BBX 20 27 1 0
BITMAP
00A000
00D000
015000
016800
01A800
02B800
000000
000000
B40350
B40350
B40350
B40350
B40350
B40350
B40350
B7FD50
B40350
B7FD50
B7FF50
B40350
B40350
B40350
B40350
B40350
B40350
B40350
B40350
ENDCHAR
STARTCHAR hcircumflex
ENCODING 293
SWIDTH 830 0
DWIDTH 20 0
BBX 18 25 1 0
BITMAP
01E000
01A000
01A000
02D000
02D000
053800
000000
000000
B40B40
B40B40
B40B40
B40B40
B40B40
B40B40
B7FB40
B40B40
B7FB40
B7FB40
B40B40
B40B40
B40B40
B40B40
B40B40
B40B40
B40B40
ENDCHAR
STARTCHAR Hbar
ENCODING 294
SWIDTH 901 0
DWIDTH 22 0
BBX 23 19 -1 0
BITMAP
2D00D4
2D00D4
EDFED6
2D00D4
EDFED6
2D00D4
2D00D4
2DFF54
2D00D4
2DFF54
2DFFD4
2D00D4
2D00D4
2D00D4
2D00D4
2D00D4
2D00D4
2D00D4
2D00D4
ENDCHAR
STARTCHAR hbar
ENCODING 295
SWIDTH 830 0
DWIDTH 20 0
BBX 20 17 0 0
BITMAP
5A05A0
5A05A0
DBFDB0
DBFDB0
5A05A0
5A05A0
5BFDA0
5A05A0
5BFDA0
5BFDA0
5A05A0
5A05A0
5A05A0
5A05A0
5A05A0
5A05A0
5A05A0
ENDCHAR
STARTCHAR Itilde
ENCODING 296
SWIDTH 338 0
DWIDTH 8 0
BBX 14 26 -3 0
BITMAP
3FCC
4014
BFF4
A018
CFE0
0000
0000
0B40
0B40
0B40
0B40
0B40
0B40
0B40
0B40
0B40
0B40
0B40
0B40
0B40
0B40
0B40
0B40
0B40
0B40
0B40
ENDCHAR
STARTCHAR itilde
ENCODING 297
SWIDTH 337 0
DWIDTH 8 0
BBX 14 23 -3 0
BITMAP
3FCC
4014
BFF4
A018
CFE0
0000
0B40
0B40
0B40
0B40
0B40
0B40
0B40
0B40
0B40
0B40
0B40
0B40
0B40
0B40
0B40
0B40
0B40
ENDCHAR
STARTCHAR Imacron
ENCODING 298
SWIDTH 338 0
DWIDTH 8 0
BBX 6 19 1 0
BITMAP
B4
B4
B4
B4
B4
B4
B4
B4
B4
B4
B4
B4
B4
B4
B4
B4
B4
B4
B4
ENDCHAR
STARTCHAR imacron
ENCODING 299
SWIDTH 337 0
DWIDTH 8 0
BBX 6 17 1 0
BITMAP
B4
B4
B4
B4
B4
B4
B4
B4
B4
B4
B4
B4
B4
B4
B4
B4
B4
ENDCHAR
STARTCHAR Ibreve
ENCODING 300
SWIDTH 338 0
DWIDTH 8 0
BBX 8 25 0 0
BITMAP
A5
5A
3C
00
00
00
5A
5A
5A
5A
5A
5A
5A
5A
5A
5A
5A
5A
5A
5A
5A
5A
5A
5A
5A
ENDCHAR
STARTCHAR ibreve
ENCODING 301
SWIDTH 337 0
DWIDTH 8 0
BBX 8 22 0 0
BITMAP
A5
5A
3C
00
00
5A
5A
5A
5A
5A
5A
5A
5A
5A
5A
5A
5A
5A
5A
5A
5A
5A
ENDCHAR
STARTCHAR Iogonek
ENCODING 302
SWIDTH 338 0
DWIDTH 8 0
BBX 6 26 1 -7
BITMAP
B4
B4
B4
B4
B4
B4
B4
B4
B4
B4
B4
B4
B4
B4
B4
B4
B4
B4
BC
30
2C
30
34
34
34
34
ENDCHAR
STARTCHAR iogonek
ENCODING 303
SWIDTH 337 0
DWIDTH 8 0
BBX 6 24 1 -7
BITMAP
B4
B4
B4
B4
B4
B4
B4
B4
B4
B4
B4
B4
B4
B4
B4
B4
BC
30
2C
30
34
34
34
34
ENDCHAR
STARTCHAR Idotaccent
ENCODING 304
SWIDTH 338 0
DWIDTH 8 0
BBX 6 25 1 0
BITMAP
78
78
00
78
00
00
B4
B4
B4
B4
B4
B4
B4
B4
B4
B4
B4
B4
B4
B4
B4
B4
B4
B4
B4
ENDCHAR
STARTCHAR dotlessi
ENCODING 305
SWIDTH 337 0
DWIDTH 8 0
BBX 6 17 1 0
BITMAP
B4
B4
B4
B4
B4
B4
B4
B4
B4
B4
B4
B4
B4
B4
B4
B4
B4
ENDCHAR
STARTCHAR IJ
ENCODING 306
SWIDTH 774 0
DWIDTH 19 0
BBX 17 20 1 -1
BITMAP
B41A80
B41A80
B41A80
B41A80
B41A80
B41A80
B41A80
B41A80
B41A80
B41A80
B41A80
B41A80
B42A80
B42B00
B4DD00
B43500
B4CA00
B4F400
B40800
00F000
ENDCHAR
STARTCHAR ij
ENCODING 307
SWIDTH 729 0
DWIDTH 18 0
BBX 15 20 1 -3
BITMAP
B456
B456
B456
B456
B456
B456
B456
B456
B456
B456
B456
B456
B456
B4D6
B42A
B4DA
B434
00C8
0070
0180
ENDCHAR
STARTCHAR Jcircumflex
ENCODING 308
SWIDTH 434 0
DWIDTH 10 0
BBX 9 28 1 -1
BITMAP
0A00
1600
1500
1500
2A80
2A80
0000
0000
2B00
2B00
2B00
2B00
2B00
2B00
2B00
2B00
2B00
2B00
2B00
2B00
2B00
2B00
D500
3500
CA00
F400
1800
E000
ENDCHAR
STARTCHAR jcircumflex
ENCODING 309
SWIDTH 393 0
DWIDTH 9 0
BBX 8 28 1 -3
BITMAP
14
1C
2A
2A
55
55
00
00
56
56
56
56
56
56
56
56
56
56
56
56
56
D6
2A
D4
24
D8
70
80
ENDCHAR
STARTCHAR Kcommaaccent
ENCODING 310
SWIDTH 815 0
DWIDTH 20 0
BBX 18 27 1 -8
BITMAP
B41540
B42A80
B42A80
B45500
B45500
B4AA00
B4AA00
B55400
B55400
B7A800
B55400
B4D400
B4AA00
B45A00
B45500
B42D00
B42A80
B41680
B41540
000000
016000
016000
016000
006000
00A000
012000
01C000
ENDCHAR
STARTCHAR kcommaaccent
ENCODING 311
SWIDTH 801 0
DWIDTH 19 0
BBX 18 25 1 -8
BITMAP
B41540
B42A80
B42A80
B45500
B45600
B4AA00
B4B400
B55400
B5A800
B55400
B4D400
B4AA00
B45A00
B45500
B42B00
B42A80
B415C0
000000
01A000
01A000
01A000
00A000
00A000
012000
01C000
ENDCHAR
STARTCHAR kgreenlandic
ENCODING 312
SWIDTH 801 0
DWIDTH 19 0
BBX 18 17 1 0
BITMAP
B41540
B42A80
B42A80
B45500
B45600
B4AA00
B4B400
B55400
B5A800
B55400
B4D400
B4AA00
B45A00
B45500
B42B00
B42A80
B415C0
ENDCHAR
STARTCHAR Lacute
ENCODING 313
SWIDTH 604 0
DWIDTH 15 0
BBX 14 27 1 0
BITMAP
0008
0034
00D8
0360
0D80
0200
0000
0000
B400
B400
B400
B400
B400
B400
B400
B400
B400
B400
B400
B400
B400
B400
B400
B7F8
B7F8
B400
B7F8
ENDCHAR
STARTCHAR lacute
ENCODING 314
SWIDTH 583 0
DWIDTH 14 0
BBX 12 25 1 0
BITMAP
00C0
0320
0CC0
3300
4C00
3000
0000
0000
B400
B400
B400
B400
B400
B400
B400
B400
B400
B400
B400
B400
B400
B7F0
B7F0
B400
B7F0
ENDCHAR
STARTCHAR Lcommaaccent
ENCODING 315
SWIDTH 604 0
DWIDTH 15 0
BBX 13 27 1 -8
BITMAP
B400
B400
B400
B400
B400
B400
B400
B400
B400
B400
B400
B400
B400
B400
B400
B7F8
B7F8
B400
B7F8
0000
0A80
0A80
0A80
0280
0680
0900
0E00
ENDCHAR
STARTCHAR lcommaaccent
ENCODING 316
SWIDTH 583 0
DWIDTH 14 0
BBX 12 25 1 -8
BITMAP
B400
B400
B400
B400
B400
B400
B400
B400
B400
B400
B400
B400
B400
B7F0
B7F0
B400
B7F0
0000
0B00
0B00
0B00
0300
0500
0900
0E00
ENDCHAR
STARTCHAR Lcaron
ENCODING 317
SWIDTH 856 0
DWIDTH 21 0
BBX 19 20 1 0
BITMAP
0002A0
B402A0
B402A0
B400A0
B400A0
B40140
B401C0
B40000
B40000
B40000
B40000
B40000
B40000
B40000
B40000
B40000
B7F800
B7F800
B40000
B7F800
ENDCHAR
STARTCHAR lcaron
ENCODING 318
SWIDTH 584 0
DWIDTH 14 0
BBX 12 17 1 0
BITMAP
B4D0
B4D0
B4D0
B450
B450
B490
B4E0
B400
B400
B400
B400
B400
B400
B7F0
B7F0
B400
B7F0
ENDCHAR
STARTCHAR Ldot
ENCODING 319
SWIDTH 604 0
DWIDTH 15 0
BBX 13 19 1 0
BITMAP
B400
B400
B400
B400
B400
B400
B5F0
B400
B5F0
B400
B5F0
B400
B400
B400
B400
B7F8
B7F8
B400
B7F8
ENDCHAR
STARTCHAR ldot
ENCODING 320
SWIDTH 582 0
DWIDTH 14 0
BBX 12 17 1 0
BITMAP
B400
B400
B400
B5F0
B400
B5F0
B400
B5F0
B400
B400
B400
B400
B400
B7F0
B7F0
B400
B7F0
ENDCHAR
STARTCHAR Lslash
ENCODING 321
SWIDTH 604 0
DWIDTH 15 0
BBX 16 19 -2 0
BITMAP
1680
1680
1680
1680
16B8
16C8
16B0
3688
D6B0
7680
9680
F680
1680
1680
1680
16FF
16FF
1680
16FF
ENDCHAR
STARTCHAR lslash
ENCODING 322
SWIDTH 581 0
DWIDTH 14 0
BBX 15 17 -2 0
BITMAP
1680
1680
1680
1698
16A0
16B8
16C8
F6B0
3680
D680
7680
9680
1680
16FE
16FE
1680
16FE
ENDCHAR
STARTCHAR Nacute
ENCODING 323
SWIDTH 877 0
DWIDTH 21 0
BBX 19 27 1 0
BITMAP
000100
000680
001980
006600
00B800
004000
000000
2A0000
D505A0
D505A0
AA85A0
BA85A0
B545A0
AAA5A0
BAA5A0
B555A0
B2BDA0
B6ADA0
B555A0
B555A0
B4AAA0
B455A0
B45560
B42AA0
B42AA0
B41560
B40AA0
ENDCHAR
STARTCHAR nacute
ENCODING 324
SWIDTH 787 0
DWIDTH 19 0
BBX 17 25 1 0
BITMAP
000200
000D00
003600
00D800
036000
008000
000000
000000
AA0A80
D50A80
D50A80
AA8A80
D54A80
B54A80
AAAA80
BAAA80
B55A80
B3F680
B2AA80
B15680
B15680
B0AA80
B0AA80
B05580
B02B80
ENDCHAR
STARTCHAR Ncommaaccent
ENCODING 325
SWIDTH 877 0
DWIDTH 21 0
BBX 19 27 1 -8
BITMAP
FF05A0
D505A0
AA85A0
BA85A0
B545A0
AAA5A0
BAA5A0
B555A0
B2BDA0
B6ADA0
B555A0
B555A0
B4AAA0
B455A0
B45560
B42AA0
B42AA0
B41560
B40AA0
000000
015000
015000
015000
005000
005000
01A000
01C000
ENDCHAR
STARTCHAR ncommaaccent
ENCODING 326
SWIDTH 787 0
DWIDTH 19 0
BBX 17 25 1 -8
BITMAP
AA0A80
D50A80
D50A80
AA8A80
D54A80
B54A80
AAAA80
BAAA80
B55A80
B3F680
B2AA80
B15680
B15680
B0AA80
B0AA80
B05580
B02B80
000000
02A000
02A000
02A000
00A000
01A000
024000
038000
ENDCHAR
STARTCHAR Ncaron
ENCODING 327
SWIDTH 877 0
DWIDTH 21 0
BBX 19 27 1 0
BITMAP
02A800
02A800
01D000
015000
00E000
00A000
000000
2A0000
D505A0
D505A0
AA85A0
BA85A0
B545A0
AAA5A0
BAA5A0
B555A0
B2BDA0
B6ADA0
B555A0
B555A0
B4AAA0
B455A0
B45560
B42AA0
B42AA0
B41560
B40AA0
ENDCHAR
STARTCHAR ncaron
ENCODING 328
SWIDTH 787 0
DWIDTH 19 0
BBX 17 25 1 0
BITMAP
055000
055000
02A000
02A000
02C000
014000
000000
000000
AA0A80
D50A80
D50A80
AA8A80
D54A80
B54A80
AAAA80
BAAA80
B55A80
B3F680
B2AA80
B15680
B15680
B0AA80
B0AA80
B05580
B02B80
ENDCHAR
STARTCHAR Eng
ENCODING 330
SWIDTH 874 0
DWIDTH 21 0
BBX 19 27 1 -8
BITMAP
FF05A0
D505A0
AA85A0
D545A0
B545A0
AAA5A0
BA55A0
B555A0
B2ADA0
B6A5A0
B555A0
B4ADA0
B4ADA0
B455A0
B435A0
B42DA0
B415A0
B415A0
B40DA0
0005A0
000AA0
0032C0
003D40
000280
003D80
000600
003800
ENDCHAR
STARTCHAR eng
ENCODING 331
SWIDTH 691 0
DWIDTH 17 0
BBX 14 24 1 -7
BITMAP
AA2C
D52C
D52C
AAAC
D56C
B56C
AAAC
BAAC
B56C
B3EC
B2AC
B16C
B16C
B0AC
B0AC
B06C
B02C
002C
002C
00D4
0034
00C8
0030
00C0
ENDCHAR
STARTCHAR Omacron
ENCODING 332
SWIDTH 933 0
DWIDTH 22 0
BBX 21 21 1 -1
BITMAP
03FC00
0C3300
138C80
2CFB40
5B04A0
54FB50
AB0550
AC02B0
D402A8
D401A8
D401A8
D401A8
B402A8
AA02D0
A90D50
5672A0
299DA0
366240
09FD80
060600
00F800
ENDCHAR
STARTCHAR omacron
ENCODING 333
SWIDTH 833 0
DWIDTH 20 0
BBX 18 19 1 -1
BITMAP
01E000
0E1C00
13F200
2C0900
53F680
54CA80
AB3540
B40D40
D40B40
D40AC0
D40AC0
B40B40
AA1540
ADEA80
533280
2CCD00
13F200
0C0C00
03F000
ENDCHAR
STARTCHAR Obreve
ENCODING 334
SWIDTH 933 0
DWIDTH 22 0
BBX 21 26 1 -1
BITMAP
018C00
017400
00F800
000000
000000
03FC00
0C3300
138C80
2CFB40
5B04A0
54FB50
AB0550
AC02B0
D402A8
D401A8
D401A8
D401A8
B402A8
AA02D0
A90D50
5672A0
299DA0
366240
09FD80
060600
00F800
ENDCHAR
STARTCHAR obreve
ENCODING 335
SWIDTH 833 0
DWIDTH 20 0
BBX 18 23 1 -1
BITMAP
052800
02D000
01E000
000000
01E000
0E1C00
13F200
2C0900
53F680
54CA80
AB3540
B40D40
D40B40
D40AC0
D40AC0
B40B40
AA1540
ADEA80
533280
2CCD00
13F200
0C0C00
03F000
ENDCHAR
STARTCHAR Ohungarumlaut
ENCODING 336
SWIDTH 933 0
DWIDTH 22 0
BBX 22 28 1 -1
BITMAP
001008
006834
019CCC
066330
0984C0
060300
000000
03FC00
0C3300
138C80
2CFB40
5B04A0
54FB50
AB0550
AC02B0
D402A8
D401A8
D401A8
D401A8
B402A8
AA02D0
A90D50
5672A0
299DA0
366240
09FD80
060600
00F800
ENDCHAR
STARTCHAR ohungarumlaut
ENCODING 337
SWIDTH 833 0
DWIDTH 20 0
BBX 21 26 1 -1
BITMAP
002030
00D068
0331B0
0CC6C0
171B00
080400
000000
01E000
0E1C00
13F200
2C0900
53F680
54CA80
AB3540
B40D40
D40B40
D40AC0
D40AC0
B40B40
AA1540
ADEA80
533280
2CCD00
13F200
0C0C00
03F000
ENDCHAR
STARTCHAR OE
ENCODING 338
SWIDTH 1317 0
DWIDTH 32 0
BBX 30 21 1 -1
BITMAP
03FC0000
0C33AFFC
138DAFFC
2CFBA800
5B05AFFC
54FAA800
AA05A800
AE03A800
D402AF80
D401A800
D401AF80
D401AF80
B402A800
AA03A800
A90DA800
5672A800
299DAFFC
3662AFFC
09F9A800
0606AFFC
00F80000
ENDCHAR
STARTCHAR oe
ENCODING 339
SWIDTH 1174 0
DWIDTH 28 0
BBX 26 19 1 -1
BITMAP
01E00000
0E1EFFC0
13F2C000
2C0EFFC0
53F6FFC0
54CAC000
AB36C000
B40AFFC0
D40AC000
D40AFFC0
D40AC000
B40AFFC0
AA16C000
ADEAC000
5332FFC0
2CCEFFC0
13F2C000
0C0EFFC0
03F00000
ENDCHAR
STARTCHAR Racute
ENCODING 340
SWIDTH 843 0
DWIDTH 20 0
BBX 19 27 1 0
BITMAP
001000
006800
019C00
066000
098000
060000
000000
000000
FFFE00
BFF900
A00680
BFF940
B00540
B7FAA0
B406A0
B40AA0
B7F2C0
B7FD40
B40280
B7F980
B40600
B7FD00
B43500
B42B00
B42A80
B41A80
B41580
ENDCHAR
STARTCHAR Rcommaaccent
ENCODING 342
SWIDTH 843 0
DWIDTH 20 0
BBX 19 27 1 -8
BITMAP
FFFE00
BFF900
A00680
BFF940
B00540
B7FAA0
B406A0
B40AA0
B7F2C0
B7FD40
B40280
B7F980
B40600
B7FD00
B43500
B42B00
B42A80
B41A80
B41580
000000
01A000
01A000
01A000
00A000
00A000
016000
01C000
ENDCHAR
STARTCHAR rcommaaccent
ENCODING 343
SWIDTH 831 0
DWIDTH 20 0
BBX 18 25 1 -8
BITMAP
FFFC00
800300
BFFD80
BFF280
B00D40
B7F340
B40AC0
B7FB40
B40540
B7FB40
B40C80
B7F100
B7FE00
B45A00
B45500
B42D00
B42B80
000000
02C000
02C000
02C000
00C000
01C000
024000
038000
ENDCHAR
STARTCHAR Rcaron
ENCODING 344
SWIDTH 843 0
DWIDTH 20 0
BBX 19 27 1 0
BITMAP
298000
1A8000
168000
150000
0D0000
0E0000
000000
000000
FFFE00
BFF900
A00680
BFF940
B00540
B7FAA0
B406A0
B40AA0
B7F2C0
B7FD40
B40280
B7F980
B40600
B7FD00
B43500
B42B00
B42A80
B41A80
B41580
ENDCHAR
STARTCHAR rcaron
ENCODING 345
SWIDTH 831 0
DWIDTH 20 0
BBX 18 25 1 0
BITMAP
032800
02D000
02D000
015000
01A000
00A000
000000
000000
FFFC00
800300
BFFD80
BFF280
B00D40
B7F340
B40AC0
B7FB40
B40540
B7FB40
B40C80
B7F100
B7FE00
B45A00
B45500
B42D00
B42B80
ENDCHAR
STARTCHAR Sacute
ENCODING 346
SWIDTH 682 0
DWIDTH 16 0
BBX 16 28 0 -1
BITMAP
0002
000D
0036
00D8
0360
0080
0000
07F8
18C6
2E39
5BE6
5418
6BF0
6A00
6BE0
5418
53E4
2C1A
11EA
0FD6
0055
0075
0F95
1E6A
319A
CFE4
3818
07E0
ENDCHAR
STARTCHAR sacute
ENCODING 347
SWIDTH 683 0
DWIDTH 16 0
BBX 15 25 1 0
BITMAP
0004
001A
006C
01B0
06C0
0100
0000
0000
1FF0
678C
5872
AFEC
D010
D000
AF40
B030
4FE8
3014
07EA
002A
202A
5FD4
B034
CFC8
3FF0
ENDCHAR
STARTCHAR Scircumflex
ENCODING 348
SWIDTH 682 0
DWIDTH 16 0
BBX 16 28 0 -1
BITMAP
0140
0340
02C0
05A0
05A0
0650
0000
07F8
18C6
2E39
5BE6
5418
6BF0
6A00
6BE0
5418
53E4
2C1A
11EA
0FD6
0055
0075
0F95
1E6A
319A
CFE4
3818
07E0
ENDCHAR
STARTCHAR scircumflex
ENCODING 349
SWIDTH 683 0
DWIDTH 16 0
BBX 15 25 1 0
BITMAP
0280
0680
0540
0B40
0B40
0CA0
0000
0000
1FF0
678C
5872
AFEC
D010
D000
AF40
B030
4FE8
3014
07EA
002A
202A
5FD4
B034
CFC8
3FF0
ENDCHAR
STARTCHAR Scedilla
ENCODING 350
SWIDTH 682 0
DWIDTH 16 0
BBX 16 28 0 -8
BITMAP
07F8
18C6
2E39
5BE6
5418
6BF0
6A00
6BE0
5418
53E4
2C1A
11EA
0FD6
0055
0075
0F95
1E6A
319A
CFE4
3818
07E0
0740
0840
0B80
0A00
0B80
0800
0780
ENDCHAR
STARTCHAR scedilla
ENCODING 351
SWIDTH 683 0
DWIDTH 16 0
BBX 15 25 1 -8
BITMAP
1FF0
678C
5872
AFEC
D010
D000
AF40
B030
4FE8
3014
07EA
002A
202A
5FD4
B034
CFC8
3DF0
0280
0E80
1080
1700
1400
1700
1000
0F00
ENDCHAR
STARTCHAR Scaron
ENCODING 352
SWIDTH 682 0
DWIDTH 16 0
BBX 16 28 0 -1
BITMAP
0550
0560
03A0
02A0
02C0
0140
0000
07F8
18C6
2E39
5BE6
5418
6BF0
6A00
6BE0
5418
53E4
2C1A
11EA
0FD6
0055
0075
0F95
1E6A
319A
CFE4
3818
07E0
ENDCHAR
STARTCHAR scaron
ENCODING 353
SWIDTH 683 0
DWIDTH 16 0
BBX 15 25 1 0
BITMAP
0AA0
0AC0
0740
0540
0580
0280
0000
0000
1FF0
678C
5872
AFEC
D010
D000
AF40
B030
4FE8
3014
07EA
002A
202A
5FD4
B034
CFC8
3FF0
ENDCHAR
STARTCHAR Tcommaaccent
ENCODING 354
SWIDTH 591 0
DWIDTH 14 0
BBX 12 26 1 -7
BITMAP
FFF0
FFF0
0000
FFF0
1680
1680
1680
1680
1680
1680
1680
1680
1680
1680
1680
1680
1680
1680
1680
1E00
2200
2E00
3000
2E00
2000
1E00
ENDCHAR
STARTCHAR tcommaaccent
ENCODING 355
SWIDTH 588 0
DWIDTH 14 0
BBX 12 24 1 -7
BITMAP
FFF0
0000
FFF0
FFF0
0000
1680
1680
1680
1680
1680
1680
1680
1680
1680
1680
1680
1680
1E00
2200
2E00
3000
2E00
2000
1E00
ENDCHAR
STARTCHAR Tcaron
ENCODING 356
SWIDTH 591 0
DWIDTH 14 0
BBX 12 27 1 0
BITMAP
2940
1680
1680
0B00
0D00
0500
0000
0000
FFF0
FFF0
0000
FFF0
1680
1680
1680
1680
1680
1680
1680
1680
1680
1680
1680
1680
1680
1680
1680
ENDCHAR
STARTCHAR tcaron
ENCODING 357
SWIDTH 842 0
DWIDTH 20 0
BBX 18 17 1 0
BITMAP
FFF2C0
0002C0
FFF2C0
FFF0C0
0001C0
168240
168380
168000
168000
168000
168000
168000
168000
168000
168000
168000
168000
ENDCHAR
STARTCHAR Tbar
ENCODING 358
SWIDTH 591 0
DWIDTH 14 0
BBX 12 19 1 0
BITMAP
FFF0
FFF0
0000
FFF0
1680
1680
1680
F6F0
1680
F6F0
F6F0
1680
1680
1680
1680
1680
1680
1680
1680
ENDCHAR
STARTCHAR tbar
ENCODING 359
SWIDTH 588 0
DWIDTH 14 0
BBX 12 17 1 0
BITMAP
FFF0
0000
FFF0
FFF0
0000
1680
1680
1680
F6F0
1680
F6F0
1680
F6F0
1680
1680
1680
1680
ENDCHAR
STARTCHAR Utilde
ENCODING 360
SWIDTH 905 0
DWIDTH 22 0
BBX 20 27 1 -1
BITMAP
07FA80
180280
17FC80
180300
19FC00
000000
000000
B40350
B40350
B40350
B40350
B40350
B40350
B40350
B40350
B40350
B40350
B40350
B40350
AA0560
AB0AA0
54E6A0
6B9940
246680
1BF900
060600
01F800
ENDCHAR
STARTCHAR utilde
ENCODING 361
SWIDTH 795 0
DWIDTH 19 0
BBX 17 24 1 -1
BITMAP
1FE500
200500
2FFA00
500600
53F800
000000
B41680
B41680
B41680
B41680
B41680
B41680
B41680
B41680
B41680
B41680
B41680
AA2A80
ADDA80
577500
288A00
17F400
0C1800
03E000
ENDCHAR
STARTCHAR Umacron
ENCODING 362
SWIDTH 905 0
DWIDTH 22 0
BBX 20 20 1 -1
BITMAP
B40350
B40350
B40350
B40350
B40350
B40350
B40350
B40350
B40350
B40350
B40350
B40350
AA0560
AB0AA0
54E6A0
6B9940
246680
1BF900
060600
01F800
ENDCHAR
STARTCHAR umacron
ENCODING 363
SWIDTH 795 0
DWIDTH 19 0
BBX 17 18 1 -1
BITMAP
B41680
B41680
B41680
B41680
B41680
B41680
B41680
B41680
B41680
B41680
B41680
AA2A80
ADDA80
577500
288A00
17F400
0C1800
03E000
ENDCHAR
STARTCHAR Ubreve
ENCODING 364
SWIDTH 905 0
DWIDTH 22 0
BBX 20 26 1 -1
BITMAP
031800
02E800
01F000
000000
000000
000000
B40350
B40350
B40350
B40350
B40350
B40350
B40350
B40350
B40350
B40350
B40350
B40350
AA0560
AB0AA0
54E6A0
6B9940
246680
1BF900
060600
01F800
ENDCHAR
STARTCHAR ubreve
ENCODING 365
SWIDTH 795 0
DWIDTH 19 0
BBX 17 23 1 -1
BITMAP
063000
05D000
03E000
000000
000000
B41680
B41680
B41680
B41680
B41680
B41680
B41680
B41680
B41680
B41680
B41680
AA2A80
ADDA80
577500
288A00
17F400
0C1800
03E000
ENDCHAR
STARTCHAR Uring
ENCODING 366
SWIDTH 905 0
DWIDTH 22 0
BBX 20 29 1 -1
BITMAP
00E000
017000
019800
029800
01E800
009000
006000
000000
000000
B40350
B40350
B40350
B40350
B40350
B40350
B40350
B40350
B40350
B40350
B40350
B40350
AA0560
AB0AA0
54E6A0
6B9940
246680
1BF900
060600
01F800
ENDCHAR
STARTCHAR uring
ENCODING 367
SWIDTH 795 0
DWIDTH 19 0
BBX 17 26 1 -1
BITMAP
01C000
02A000
055000
063000
05D000
036000
008000
000000
B41680
B41680
B41680
B41680
B41680
B41680
B41680
B41680
B41680
B41680
B41680
AA2A80
ADDA80
577500
288A00
17F400
0C1800
03E000
ENDCHAR
STARTCHAR Uhungarumlaut
ENCODING 368
SWIDTH 905 0
DWIDTH 22 0
BBX 22 28 1 -1
BITMAP
001018
006864
01B198
06C660
1B0980
040200
000000
000000
B40350
B40350
B40350
B40350
B40350
B40350
B40350
B40350
B40350
B40350
B40350
B40350
AA0560
AB0AA0
54E6A0
6B9940
246680
1BF900
060600
01F800
ENDCHAR
STARTCHAR uhungarumlaut
ENCODING 369
SWIDTH 795 0
DWIDTH 19 0
BBX 21 26 1 -1
BITMAP
006020
0190C8
066330
198CC0
261300
180C00
000000
000000
B41680
B41680
B41680
B41680
B41680
B41680
B41680
B41680
B41680
B41680
B41680
AA2A80
ADDA80
577500
288A00
17F400
0C1800
03E000
ENDCHAR
STARTCHAR Uogonek
ENCODING 370
SWIDTH 905 0
DWIDTH 22 0
BBX 20 27 1 -8
BITMAP
B40350
B40350
B40350
B40350
B40350
B40350
B40350
B40350
B40350
B40350
B40350
B40350
AA0560
AB0AA0
54E6A0
6B9940
246680
1BF900
060600
01F800
010000
026000
028000
02A000
02A000
02A000
02A000
ENDCHAR
STARTCHAR uogonek
ENCODING 371
SWIDTH 794 0
DWIDTH 19 0
BBX 17 25 1 -8
BITMAP
B41680
B41680
B41680
B41680
B41680
B41680
B41680
B41680
B41680
B41680
B41680
AA2A80
ADDA80
577500
288A00
17F400
0C1800
03E000
060000
058000
060000
068000
068000
068000
068000
ENDCHAR
STARTCHAR Ycircumflex
ENCODING 374
SWIDTH 789 0
DWIDTH 19 0
BBX 19 27 0 0
BITMAP
00A000
00E000
015000
015000
02A800
02A800
000000
8400A0
6A0B40
560D40
351580
2B1A80
1AAB00
15B500
0D5600
0B6A00
06AC00
05B400
035800
036800
02B000
02B000
02B000
02B000
02B000
02B000
02B000
ENDCHAR
STARTCHAR ycircumflex
ENCODING 375
SWIDTH 733 0
DWIDTH 18 0
BBX 17 25 0 0
BITMAP
01C000
01A000
02A000
02D000
02D000
053000
000000
000000
AE1780
5A1A80
552B00
2B3500
1AD600
156A00
0DAC00
0AD400
075800
05A800
02B000
02D000
02D000
02D000
02D000
02D000
02D000
ENDCHAR
STARTCHAR Ydieresis
ENCODING 376
SWIDTH 789 0
DWIDTH 19 0
BBX 19 24 0 0
BITMAP
0D1600
0D1600
000000
000000
8400A0
6A0B40
560D40
351580
2B1A80
1AAB00
15B500
0D5600
0B6A00
06AC00
05B400
035800
036800
02B000
02B000
02B000
02B000
02B000
02B000
02B000
ENDCHAR
STARTCHAR Zacute
ENCODING 377
SWIDTH 854 0
DWIDTH 21 0
BBX 19 27 1 0
BITMAP
000300
000C80
003300
00CC00
013000
004000
000000
000000
FFFFE0
FFFE80
000360
FFF480
009B60
FF2480
00DB60
012480
06DB00
092400
36D800
492000
B6C000
497FE0
B60000
49FFE0
B7FFE0
480000
FFFFE0
ENDCHAR
STARTCHAR zacute
ENCODING 378
SWIDTH 714 0
DWIDTH 17 0
BBX 15 25 1 0
BITMAP
0004
001A
0066
0198
0260
0180
0000
0000
FF56
01AE
FEAA
FD54
02D4
02A8
0550
0550
0AA0
15A0
1540
2A80
4A80
557E
AAFE
AA00
D5FE
ENDCHAR
STARTCHAR Zdotaccent
ENCODING 379
SWIDTH 854 0
DWIDTH 21 0
BBX 19 25 1 0
BITMAP
01E000
01E000
000000
01E000
000000
000000
FFFFE0
FFFE80
000360
FFF480
009B60
FF2480
00DB60
012480
06DB00
092400
36D800
492000
B6C000
497FE0
B60000
49FFE0
B7FFE0
480000
FFFFE0
ENDCHAR
STARTCHAR zdotaccent
ENCODING 380
SWIDTH 714 0
DWIDTH 17 0
BBX 15 23 1 0
BITMAP
03C0
03C0
0000
03C0
0000
0000
FF56
01AE
FEAA
FD54
02D4
02A8
0550
0550
0AA0
15A0
1540
2A80
4A80
557E
AAFE
AA00
D5FE
ENDCHAR
STARTCHAR Zcaron
ENCODING 381
SWIDTH 854 0
DWIDTH 21 0
BBX 19 27 1 0
BITMAP
032800
02B000
02D000
015000
01A000
00A000
000000
000000
FFFFE0
FFFE80
000360
FFF480
009B60
FF2480
00DB60
012480
06DB00
092400
36D800
492000
B6C000
497FE0
B60000
49FFE0
B7FFE0
480000
FFFFE0
ENDCHAR
STARTCHAR zcaron
ENCODING 382
SWIDTH 714 0
DWIDTH 17 0
BBX 15 25 1 0
BITMAP
0AE0
06A0
06C0
0540
0340
0280
0000
0000
FF56
01AE
FEAA
FD54
02D4
02A8
0550
0550
0AA0
15A0
1540
2A80
4A80
557E
AAFE
AA00
D5FE
ENDCHAR
STARTCHAR florin
ENCODING 402
SWIDTH 388 0
DWIDTH 9 0
BBX 7 22 1 -2
BITMAP
0E
16
28
36
54
54
D6
54
D6
54
D6
54
54
54
54
54
54
D4
14
E8
30
C0
ENDCHAR
STARTCHAR uni01C4
ENCODING 452
SWIDTH 1740 0
DWIDTH 42 0
BBX 40 27 1 0
BITMAP
0000001540
0000001540
0000000E80
0000000A80
0000000680
0000000500
0000000000
0000000000
FFFC07FFFF
BFFB07FFF4
A00680001B
BFFB47FFB4
B00540045B
B7FAA7F9A4
B405A002DB
B405600D24
B4055012D8
B405506D20
B4056096C0
B405636D00
B40AA4B600
B7F2A369FF
B00D44B000
BFF2C34FFF
BFFD85BFFF
8002034000
FFFC07FFFF
ENDCHAR
STARTCHAR uni01C5
ENCODING 453
SWIDTH 1601 0
DWIDTH 38 0
BBX 37 25 1 0
BITMAP
0000005280
0000002D00
0000002D00
0000001600
0000001A00
0000001E00
FFFC000000
BFFB000000
A00687FFF8
BFFB4002A8
B00547FD50
B7FAA7FA50
B405A00AA0
B405601540
B405503540
B405502A80
B405605500
B405605500
B40AA0AA00
B7F2A16A00
B00D415400
BFF2C2ABF8
BFFD86AFF8
8002055000
FFFC06BFF8
ENDCHAR
STARTCHAR Scommaaccent
ENCODING 536
SWIDTH 682 0
DWIDTH 16 0
BBX 16 29 0 -9
BITMAP
07F8
18C6
2E39
5BE6
5418
6BF0
6A00
6BE0
5418
53E4
2C1A
11EA
0FD6
0055
0075
0F95
1E6A
319A
CFE4
3818
07E0
0000
0340
0340
0340
0140
0140
0240
0380
ENDCHAR
STARTCHAR scommaaccent
ENCODING 537
SWIDTH 683 0
DWIDTH 16 0
BBX 15 26 1 -9
BITMAP
1FF0
678C
5872
AFEC
D010
D000
AF40
B030
4FE8
3014
07EA
002A
202A
5FD4
B034
CFC8
3FF0
0000
0000
0580
0580
0580
0180
0280
0480
0700
ENDCHAR
STARTCHAR uni021A
ENCODING 538
SWIDTH 591 0
DWIDTH 14 0
BBX 12 27 1 -8
BITMAP
FFF0
FFF0
0000
FFF0
1680
1680
1680
1680
1680
1680
1680
1680
1680
1680
1680
1680
1680
1680
1680
0000
0B00
0B00
0B00
0300
0500
0900
0E00
ENDCHAR
STARTCHAR uni021B
ENCODING 539
SWIDTH 588 0
DWIDTH 14 0
BBX 12 25 1 -8
BITMAP
FFF0
0000
FFF0
FFF0
0000
1680
1680
1680
1680
1680
1680
1680
1680
1680
1680
1680
1680
0000
0B00
0B00
0B00
0300
0500
0900
0E00
ENDCHAR
STARTCHAR uni0237
ENCODING 567
SWIDTH 393 0
DWIDTH 9 0
BBX 7 20 1 -3
BITMAP
56
56
56
56
56
56
56
56
56
56
56
56
56
D6
2A
D4
24
D8
70
80
ENDCHAR
STARTCHAR circumflex
ENCODING 710
SWIDTH 376 0
DWIDTH 9 0
BBX 7 6 1 18
BITMAP
28
38
54
54
AA
AA
ENDCHAR
STARTCHAR caron
ENCODING 711
SWIDTH 362 0
DWIDTH 9 0
BBX 7 6 1 18
BITMAP
AA
AA
74
54
58
28
ENDCHAR
STARTCHAR breve
ENCODING 728
SWIDTH 360 0
DWIDTH 9 0
BBX 7 3 1 19
BITMAP
C6
BA
7C
ENDCHAR
STARTCHAR dotaccent
ENCODING 729
SWIDTH 255 0
DWIDTH 6 0
BBX 4 4 1 15
BITMAP
F0
F0
00
F0
ENDCHAR
STARTCHAR ring
ENCODING 730
SWIDTH 330 0
DWIDTH 8 0
BBX 6 6 1 19
BITMAP
78
B4
CC
CC
B4
78
ENDCHAR
STARTCHAR ogonek
ENCODING 731
SWIDTH 250 0
DWIDTH 6 0
BBX 4 8 1 -7
BITMAP
30
C0
B0
A0
D0
D0
D0
D0
ENDCHAR
STARTCHAR tilde
ENCODING 732
SWIDTH 665 0
DWIDTH 16 0
BBX 14 5 1 13
BITMAP
3FCC
4014
BFF4
A018
CFE0
ENDCHAR
STARTCHAR hungarumlaut
ENCODING 733
SWIDTH 837 0
DWIDTH 20 0
BBX 18 6 1 17
BITMAP
010080
068340
19CCC0
663300
984C00
603000
ENDCHAR
STARTCHAR uni0307
ENCODING 775
SWIDTH 260 0
DWIDTH 6 0
BBX 4 5 1 9
BITMAP
F0
00
F0
00
F0
ENDCHAR
STARTCHAR uni030F
ENCODING 783
SWIDTH 554 0
DWIDTH 13 0
BBX 11 8 1 18
BITMAP
E300
A280
6280
5140
5140
28C0
28A0
1CE0
ENDCHAR
STARTCHAR uni0311
ENCODING 785
SWIDTH 375 0
DWIDTH 9 0
BBX 7 3 1 19
BITMAP
38
54
EE
ENDCHAR
STARTCHAR uni0326
ENCODING 806
SWIDTH 274 0
DWIDTH 7 0
BBX 4 7 1 -9
BITMAP
B0
B0
B0
30
50
90
E0
ENDCHAR
STARTCHAR Omega
ENCODING 937
SWIDTH 92 0
DWIDTH 2 0
BBX 1 1 0 0
BITMAP
00
ENDCHAR
STARTCHAR uni00B5.dup2
ENCODING 956
SWIDTH 802 0
DWIDTH 19 0
BBX 17 20 1 -3
BITMAP
B41580
B41580
B41580
B41580
B41580
B41580
B41580
B41580
B41580
B41580
B41580
B42A80
B5CA80
B57500
B48B00
B5F600
B41800
B5E000
B40000
B40000
ENDCHAR
STARTCHAR pi
ENCODING 960
SWIDTH 92 0
DWIDTH 2 0
BBX 1 1 0 0
BITMAP
00
ENDCHAR
STARTCHAR endash
ENCODING 8211
SWIDTH 473 0
DWIDTH 11 0
BBX 9 4 1 8
BITMAP
FF80
0000
FF80
FF80
ENDCHAR
STARTCHAR emdash
ENCODING 8212
SWIDTH 615 0
DWIDTH 15 0
BBX 13 4 1 8
BITMAP
FFF8
0000
FFF8
FFF8
ENDCHAR
STARTCHAR quoteleft
ENCODING 8216
SWIDTH 254 0
DWIDTH 6 0
BBX 4 7 1 12
BITMAP
70
90
A0
A0
B0
B0
B0
ENDCHAR
STARTCHAR quoteright
ENCODING 8217
SWIDTH 251 0
DWIDTH 6 0
BBX 4 7 1 12
BITMAP
B0
B0
B0
30
50
90
E0
ENDCHAR
STARTCHAR quotesinglbase
ENCODING 8218
SWIDTH 252 0
DWIDTH 6 0
BBX 4 7 1 -3
BITMAP
B0
B0
B0
30
50
90
E0
ENDCHAR
STARTCHAR quotedblleft
ENCODING 8220
SWIDTH 535 0
DWIDTH 13 0
BBX 11 7 1 12
BITMAP
70E0
9120
A140
A180
B1A0
B1A0
B1A0
ENDCHAR
STARTCHAR quotedblright
ENCODING 8221
SWIDTH 532 0
DWIDTH 13 0
BBX 11 7 1 12
BITMAP
B1A0
B1A0
B1A0
30A0
51A0
9260
E1C0
ENDCHAR
STARTCHAR quotedblbase
ENCODING 8222
SWIDTH 533 0
DWIDTH 13 0
BBX 11 7 1 -3
BITMAP
B1A0
B1A0
B1A0
30A0
50A0
9120
E1C0
ENDCHAR
STARTCHAR dagger
ENCODING 8224
SWIDTH 636 0
DWIDTH 15 0
BBX 14 19 1 0
BITMAP
0D40
0D40
0D40
FD7C
0D40
FD7C
0D40
FD7C
0D40
0D40
0D40
0D40
0D40
0D40
0D40
0D40
0D40
0D40
0D40
ENDCHAR
STARTCHAR daggerdbl
ENCODING 8225
SWIDTH 648 0
DWIDTH 16 0
BBX 14 19 1 0
BITMAP
0B40
0B40
0B40
FB7C
0B40
FB7C
0B40
FB7C
0B40
0B40
0B40
FB7C
0B40
FB7C
FB7C
0B40
0B40
0B40
0B40
ENDCHAR
STARTCHAR bullet
ENCODING 8226
SWIDTH 501 0
DWIDTH 12 0
BBX 10 11 1 3
BITMAP
0E00
3100
5E80
A140
A140
C0C0
A0C0
A140
5E80
2180
0E00
ENDCHAR
STARTCHAR ellipsis
ENCODING 8230
SWIDTH 676 0
DWIDTH 16 0
BBX 14 4 1 0
BITMAP
F7BC
F7BC
0000
F7BC
ENDCHAR
STARTCHAR perthousand
ENCODING 8240
SWIDTH 447 0
DWIDTH 11 0
BBX 10 21 0 -2
BITMAP
03C0
0540
0540
0580
0680
0A80
0A80
0B00
0D00
1500
1500
1600
1A00
2A00
2A00
2C00
3400
5400
5400
5800
E800
ENDCHAR
STARTCHAR guilsinglleft
ENCODING 8249
SWIDTH 465 0
DWIDTH 11 0
BBX 9 12 1 3
BITMAP
0080
0300
1C80
6300
9C80
6700
9C00
FB80
CE80
3980
0600
0180
ENDCHAR
STARTCHAR guilsinglright
ENCODING 8250
SWIDTH 465 0
DWIDTH 11 0
BBX 9 12 1 3
BITMAP
8000
6000
9C00
7300
CC80
3380
1E80
E580
B980
CE00
3000
C000
ENDCHAR
STARTCHAR fraction
ENCODING 8260
SWIDTH 447 0
DWIDTH 11 0
BBX 10 21 0 -2
BITMAP
03C0
0540
0540
0580
0680
0A80
0A80
0B00
0D00
1500
1500
1600
1A00
2A00
2A00
2C00
3400
5400
5400
5800
E800
ENDCHAR
STARTCHAR uni2074
ENCODING 8308
SWIDTH 528 0
DWIDTH 13 0
BBX 11 15 1 4
BITMAP
1F80
1500
2A00
2A00
5400
5400
A940
A940
FFE0
0000
FFE0
0000
FFE0
0140
0140
ENDCHAR
STARTCHAR Euro
ENCODING 8364
SWIDTH 781 0
DWIDTH 19 0
BBX 17 21 1 -1
BITMAP
00FF80
033C80
04C380
0B7E00
148100
297F00
2A8000
350000
550000
D6F800
560000
D6F800
550000
2D0000
2AC100
153E00
12E700
091880
06FF00
018080
007F00
ENDCHAR
STARTCHAR trademark
ENCODING 8482
SWIDTH 1503 0
DWIDTH 36 0
BBX 34 14 1 5
BITMAP
FFF3E00540
FFF3500AC0
0002B00AC0
FFF2A81540
0B035416C0
0B02D42B40
0B02AA3540
0B02AA5740
0B02D5AB40
0B02D5AB40
0B02CAD340
0B02CAD340
0B02C56340
0B02C7E340
ENDCHAR
STARTCHAR partialdiff
ENCODING 8706
SWIDTH 108 0
DWIDTH 3 0
BBX 1 1 0 0
BITMAP
00
ENDCHAR
STARTCHAR uni2206
ENCODING 8710
SWIDTH 108 0
DWIDTH 3 0
BBX 1 1 0 0
BITMAP
00
ENDCHAR
STARTCHAR product
ENCODING 8719
SWIDTH 521 0
DWIDTH 13 0
BBX 11 17 1 0
BITMAP
1500
3500
2A80
3A80
5580
5D40
AD40
AAA0
D2A0
AAA0
AB40
5B40
5580
3680
2A80
2B00
1700
ENDCHAR
STARTCHAR summation
ENCODING 8721
SWIDTH 108 0
DWIDTH 3 0
BBX 1 1 0 0
BITMAP
00
ENDCHAR
STARTCHAR minus
ENCODING 8722
SWIDTH 555 0
DWIDTH 13 0
BBX 11 5 1 8
BITMAP
FFE0
0000
FFE0
0000
FFE0
ENDCHAR
STARTCHAR radical
ENCODING 8730
SWIDTH 108 0
DWIDTH 3 0
BBX 1 1 0 0
BITMAP
00
ENDCHAR
STARTCHAR infinity
ENCODING 8734
SWIDTH 108 0
DWIDTH 3 0
BBX 1 1 0 0
BITMAP
00
ENDCHAR
STARTCHAR integral
ENCODING 8747
SWIDTH 362 0
DWIDTH 9 0
BBX 7 22 1 -2
BITMAP
1E
26
28
56
54
54
54
54
54
54
54
54
54
54
54
54
54
D8
28
C8
30
C0
ENDCHAR
STARTCHAR approxequal
ENCODING 8776
SWIDTH 665 0
DWIDTH 16 0
BBX 14 11 1 7
BITMAP
3FCC
4014
BFF4
A018
CFE0
0000
3FCC
4014
BFF4
A018
CFE0
ENDCHAR
STARTCHAR notequal
ENCODING 8800
SWIDTH 473 0
DWIDTH 11 0
BBX 10 21 0 -2
BITMAP
03C0
0540
0540
0580
0680
7BC0
7FC0
0B00
7FC0
1500
1500
7FC0
1A00
7FC0
2A00
7FC0
3400
5400
5400
5800
E800
ENDCHAR
STARTCHAR lessequal
ENCODING 8804
SWIDTH 108 0
DWIDTH 3 0
BBX 1 1 0 0
BITMAP
00
ENDCHAR
STARTCHAR greaterequal
ENCODING 8805
SWIDTH 108 0
DWIDTH 3 0
BBX 1 1 0 0
BITMAP
00
ENDCHAR
STARTCHAR lozenge
ENCODING 9674
SWIDTH 521 0
DWIDTH 13 0
BBX 11 17 1 0
BITMAP
1500
3500
2A80
3A80
5580
5D40
AD40
AAA0
D2A0
AAA0
AB40
5B40
5580
3680
2A80
2B00
1700
ENDCHAR
STARTCHAR uniF8FF
ENCODING 63743
SWIDTH 108 0
DWIDTH 3 0
BBX 1 1 0 0
BITMAP
00
ENDCHAR
STARTCHAR uniFB01
ENCODING 64257
SWIDTH 962 0
DWIDTH 23 0
BBX 21 17 1 0
BITMAP
B7F968
B40168
B7F968
B7F968
B40168
B40168
B40168
B7F968
B40168
B7F968
B7F968
B40168
B40168
B40168
B40168
B40168
B40168
ENDCHAR
STARTCHAR uniFB02
ENCODING 64258
SWIDTH 1208 0
DWIDTH 29 0
BBX 27 17 1 0
BITMAP
B7F96800
B4016800
B7F96800
B7F96800
B4016800
B4016800
B4016800
B7F96800
B4016800
B7F96800
B7F96800
B4016800
B4016800
B4016FE0
B4016FE0
B4016800
B4016FE0
ENDCHAR
STARTCHAR .notdef
ENCODING -1
SWIDTH 108 0
DWIDTH 3 0
BBX 1 1 0 0
BITMAP
00
ENDCHAR
ENDFONT
